/* XPM */
static char *alien1712636834[] = {
/* columns rows colors chars-per-pixel */
"64 64 220 2 ",
"   c #010101",
".  c #0B0B0B",
"X  c #0B1204",
"o  c #141414",
"O  c #1A1E16",
"+  c #1B1B1B",
"@  c #13270E",
"#  c #21271C",
"$  c #381926",
"%  c #232323",
"&  c #2C2C2C",
"*  c #2E3826",
"=  c #343434",
"-  c #373833",
";  c #3C3C3C",
":  c #1F4E1A",
">  c #2D4317",
",  c #3A5A15",
"<  c #267E0A",
"1  c #344723",
"2  c #38532D",
"3  c #3B4D35",
"4  c #396E2A",
"5  c #3C7936",
"6  c #497602",
"7  c #425D27",
"8  c #424D3D",
"9  c #465A36",
"0  c #4E722B",
"q  c #4C6539",
"w  c #526D3C",
"e  c #4D3C42",
"r  c #444444",
"t  c #484C45",
"y  c #4C4C4C",
"u  c #4C5647",
"i  c #545D4E",
"p  c #475553",
"a  c #535353",
"s  c #5C5C5C",
"d  c #66585D",
"f  c #765F5D",
"g  c #546E4A",
"h  c #5A7445",
"j  c #5B6954",
"k  c #597255",
"l  c #61665E",
"z  c #66755B",
"x  c #507771",
"c  c #636463",
"v  c #646861",
"b  c #6B6B6B",
"n  c #687566",
"m  c #70746D",
"M  c #747474",
"N  c #7C7C7C",
"B  c #8B792F",
"V  c #AB7756",
"C  c #A7755A",
"Z  c #AF587A",
"A  c #896872",
"S  c #C17A6C",
"D  c #1E8800",
"F  c #3A8700",
"G  c #2C9611",
"H  c #2DAA08",
"J  c #38A902",
"K  c #35B903",
"L  c #34B013",
"P  c #378129",
"I  c #3C8E33",
"U  c #578E0F",
"Y  c #479304",
"T  c #599901",
"R  c #568A1A",
"E  c #5C9416",
"W  c #629407",
"Q  c #639D1C",
"!  c #47A802",
"~  c #5AA801",
"^  c #59B300",
"/  c #56AF12",
"(  c #64A203",
")  c #67AD01",
"_  c #6DB402",
"`  c #6AB805",
"'  c #76B700",
"]  c #73BC01",
"[  c #69A51A",
"{  c #65B512",
"}  c #73B816",
"|  c #588628",
" . c #4F972C",
".. c #4A8A37",
"X. c #5D8637",
"o. c #469238",
"O. c #75882A",
"+. c #64992A",
"@. c #628B3D",
"#. c #659537",
"$. c #4DAB2E",
"%. c #6BA826",
"&. c #72B229",
"*. c #6CA235",
"=. c #72AB39",
"-. c #79BA33",
";. c #2BCE00",
":. c #39CC00",
">. c #36D300",
",. c #47C500",
"<. c #58CE00",
"1. c #4FDA00",
"2. c #5ADB00",
"3. c #66CA0B",
"4. c #74C501",
"5. c #7AC500",
"6. c #7CCB01",
"7. c #77C708",
"8. c #63DB00",
"9. c #6EDC00",
"0. c #7FD101",
"q. c #76D800",
"w. c #7AC516",
"e. c #6FE000",
"r. c #74E300",
"t. c #7BE400",
"y. c #7FE800",
"u. c #37885C",
"i. c #348C6C",
"p. c #359071",
"a. c #469345",
"s. c #58984A",
"d. c #508C50",
"f. c #618445",
"g. c #658948",
"h. c #6E9C47",
"j. c #6B8559",
"k. c #75975D",
"l. c #52A84A",
"z. c #72A94E",
"x. c #7EB749",
"c. c #559277",
"v. c #74866C",
"b. c #728E69",
"n. c #779962",
"m. c #7D8578",
"M. c #74A96B",
"N. c #889603",
"B. c #9A9A0D",
"V. c #B1981C",
"C. c #85A700",
"Z. c #83BB00",
"A. c #96B300",
"S. c #978431",
"D. c #8ECE00",
"F. c #82D400",
"G. c #85DB00",
"H. c #89DE00",
"J. c #89D806",
"K. c #80CE14",
"L. c #83D417",
"P. c #82E500",
"I. c #8CE400",
"U. c #84E800",
"Y. c #8FE900",
"T. c #90EB00",
"R. c #83D02A",
"E. c #B2874E",
"W. c #80847E",
"Q. c #85967D",
"!. c #8BB26E",
"~. c #8AA378",
"^. c #DD8359",
"/. c #9A7986",
"(. c #BA6283",
"). c #D56C8D",
"_. c #E86E9C",
"`. c #E47494",
"'. c #F876A8",
"]. c #FF7DB4",
"[. c #369786",
"{. c #30978D",
"}. c #34A397",
"|. c #33A39A",
" X c #769792",
".X c #41A99D",
"XX c #5BB2A7",
"oX c #71BEB4",
"OX c #838383",
"+X c #8A8D87",
"@X c #8B8B8B",
"#X c #8D9985",
"$X c #919A8C",
"%X c #939393",
"&X c #999C97",
"*X c #9C9C9C",
"=X c #94A787",
"-X c #97B092",
";X c #A3B696",
":X c #A4A4A4",
">X c #A4A8A1",
",X c #ABABAB",
"<X c #ADB2AA",
"1X c #B4BCAF",
"2X c #B4B4B4",
"3X c #B8BAB6",
"4X c #BBBBBB",
"5X c #FF81B7",
"6X c #FF81BA",
"7X c #86C7BE",
"8X c #C0C4BD",
"9X c #A4CECB",
"0X c #C4C4C4",
"qX c #CBCBCB",
"wX c #D3D3D3",
"eX c #DBDBDB",
"rX c #E3E3E3",
"tX c #ECECEC",
"yX c #F2F2F2",
"uX c #FDFDFD",
/* pixels */
"  ,XM t y s @Xb :XM %Xy OX%X; a  Xe OX*Xa *X X:X# q k.=._ %.@.> % o & N b = %X:Xs b b :XN qXM c a a b 4Xs OX*XOXOXp *Xo /.r qX; ",
"N   *Xr a @Xj 4X@XOX@XM r @Xc r c s c *Xy b 4 E ' J.T.T.T.T.T.K.!.N ;     r - 2X,Xb = @X:Xa s a & M ,Xa N @XN OXc . b N N = %X  ",
"@X,Xo ; *XN s :XN r N ; ; r ,Xc &Xs :X*Xd.&.t.Y.T.T.T.T.Y.Y.Y.T.Y.%.%X2Xr b ; @XrX4X@Xy @XOXM M OX:X= M c & ; b & tXo uX  %Xr ; ",
"; OXtXc p N /.OX0X0XM OX:Xb y eX%X,Xj l.9.T.Y.Y.I.T.T.I.Y.Y.Y.Y.T.Y.( b uXy %X*X:X= a OXN ,X%X@XN ; = :Xr r :X  yXa a c c eX  c ",
"0X& . :Xa OXb @X= s v . & M M a %Xn L t.T.Y.Y.Y.T.T.I.T.T.T.T.Y.T.T.T.0 s 0XN d %Xc   a b s y y c c y OXo b = 3X%X@X@Xa uX% . M ",
"4X4Xr & s y a @XeX= s /.r r b N k :.r.T.Y.Y.Y.Y.I.T.Y.Y.Y.Y.T.T.Y.T.T.L.j OXM @Xs *Xc o y c b M @Xc OXc a N N s %X@XN 0XM a r r ",
"c 2X,X:Xc a a b 3X Xc ; %X; c 2XH 8.T.I.Y.Y.Y.Y.T.Y.Y.Y.Y.Y.Y.I.Y.Y.Y.Y.z.b b r @X= 2X%Xy ; c a /.@Xs 0Xe = @XqX*Xr N c %Xa ; OX",
"o   %Xc b s b c /.wXc *Xo  XM g :.P.T.Y.Y.Y.Y.T.T.T.Y.Y.Y.Y.Y.Y.Y.Y.Y.T.L.<Xb = %Xc = c &X& r %X&X Xb 4Xa 3X8XOX% s N b %X@X*X,X",
":X& % &Xy y b  X+ @X,XOXuX. b a.1.Y.Y.Y.Y.Y.Y.Y.Y.Y.Y.Y.T.Y.Y.Y.T.Y.Y.Y.I.h eXb N s N a b @X  + m wX%XN :X:Xc N OX*Xy OX2XqX2Xb ",
"M ; a y :X/.; &Xb ; :XOXOXtX= G 8.T.Y.Y.Y.Y.Y.T.Y.Y.Y.Y.Y.Y.Y.Y.Y.Y.Y.Y.Y.f.*X3Xb ; = c :X*X0X; @Xp /.M r s y c b = ,Xb = 0XM a ",
",Xc s r + b :Xy M M b N M   N o.8.T.T.T.Y.Y.I.J.H.T.Y.Y.Y.Y.Y.Y.Y.Y.Y.T.Y.f.; qXN N r a ; c qX:Xb b M *X@X; = b = %XM . s %X% OX",
"s r N a y   N OX Xd wXc c rXs G 2.I.T.I.Y.Y./ p.u.) H.T.Y.Y.Y.Y.Y.Y.Y.G.5.w r e *X= OXs @X  & 8Xe  XM c y s M c b :Xo & OXc N %X",
"@X%X:X@Xv s + :X%XN b eXs ; @Xb.1.T.I.T.T.4.[.|.}.p.+.0.T.Y.Y.Y.Y.T.0.M.c.j 0X0XOX@X:X= N uXOX; . OX& /.%X& *Xs &Xa ; b  XN :X%X",
"%Xc *Xc m @XqXqX:Xs N ; eX%X  2 :.I.T.T.T.~ }.}.}.7X9Xo.F.Y.Y.Y.Y.H. .9X XOXy b *Xy OX@X& . eXr @X%X  rXo M :X@X= y s c %X/.M :X",
"y c N *X/.& M 2X&X& r +   p 4XqXJ y.T.T.I. .}.}.}.XXoX[.T Y.Y.Y.T.) p..Xx v N *XwXs M b N OX  @X&X  wX+Xo 0X2X  = ; b M OXM M N ",
"M y ,XM 2Xd y b 4X X% s a o + . < r.I.I.I.o.|.}.}.}.}.|.u.6.T.T.G.u.|.{.p %X X%Xc OXM r % M ,X  o M b = qX:Xy o %Xs N t N N ; c ",
"OX= @X:Xa @X:XN . a *XqXs @XN   : <.T.Y.I.o.|.|.}.}.}.|.p.] T.T.6.i.}. Xa b @Xb @Xo ,Xo M . yXo   0Xa = c s OXb *XM @Xs  X%X. b ",
"M c b M M s = ;   :XwX& M wX. OXwX$.U.T.Y.] l.p.p.p.p.u.T I.Y.Y.I.) ..y b @XOXM M ; c M @Xr :Xo b   ,Xc a OXM 0X%X@Xb d = :Xd a ",
"3Xs *X*Xb d ; e @X2Xc   uX. OX@X+ 5 e.T.T.I.I.H.F.5.4.F.Y.Y.Y.Y.Y.I.F.b s ; a b   uX  rX% OX+ = @X*Xo = @Xb s *Xs s @Xr = ; ,XM ",
"*X%X@XM M r a  Xs *X= *Xb & %Xo b n ,.T.T.T.T.T.I.T.T.T.Y.Y.Y.Y.I.q.4.Q.; t ,X  uXM c s M eX  c c +X1Xy b :XM %X8XqXb OX4Xd a qX",
"N *Xs s y + &Xc b b c a a f @Xr @ &X-Xt.T.T.T.I.T.T.T.Y.T.I.I.T.<.J 6.j.+ c & 4X&X&XM b qX= . c ,X* 6 $Xs OXr *X; a s   ; c +Xs ",
" Xe @Xa % a %Xy c r & M 2X Xs c *Xp @ / I.T.T.T.I.T.Y.Y.T.T.T.I.P.q.Y.@.d M b c N :XM eXN c r = 1XQ.0 - q q s :X4X; M N = = OXN ",
"a s 0X= s @X; M b ; M c s M b @X= & yXd.9.T.T.Y.T.T.T.I.I.T.D.B.I.T.I.#Xy =  XwX*Xp N y %Xr y @Xb n.E R _ ( t l 8XM b ; &Xa M :X",
"d 2XrX*X%Xc %X@XN c %X%XOX%X0Xc OXb o tXs.9.Y.T.I.T.T.T.T.T.A.^.D.T.w.&Xs 4X2X/.. c N @XOX@X,X*X  6 ~ F Y T i b &X4Xb :X. OXM OX",
"2X*X%X@Xb OXc % M 4X0Xs ,XN %X:XM M b o ,Xd.-.q.Y.T.Y.Y.Y.Y.A.V.Y.L.#XM ,XOXb OXA &Xa *X:XwX4XM %X6 <.D J F v N o *XN 4XeXo M @X",
"N a & ,XN @Xy M eXOXr = eXa N @X%XN y &X& s N M./ 0.Y.T.Y.Y.I.I.G.X.M j a b a s  X= *Xb % qXM t c | 2.H 5 k = :Xb e ,XOX%XwX& = ",
"y = N a ,Xv @X2Xb s M N y %Xc OXc N ; ; M M ; ,XI K ^ 9.I.Y.Y.G.g.b M :X/.; = M e @Xv . y %X& v.!.` ..3 . @XA c c A s M s % c *X",
"c   & tXm.A :X X2X= N   @Xa c c r OXv ;   b a = #.r.,.P M.^ ` ;Xy +Xb c p b M s b :X% = N c j.R.} u b a =    XOXN  XqXc s tXy = ",
"b . 4Xb a c s uX+ @Xs e OX= a d 0Xa c ,X XM 0XqXa.U.Y.| c yXOX; + OX& N &X= *Xs +Xy r M m.h.G.x.m.%X4Xb OXe r *XOX@Xs uXs = %XN ",
"= = :Xo yX& qX; M p o c M y N :Xs 4X; = ; /.a b s.t.Y.h.= o qXa N @X. tX. s *X*X= r s i x.H.#.@X&Xs *Xb c :X4XeX@Xs a a 0X@X% = ",
". :X% c @Xy & s N c @Xb b *XM ; = M ,X; M c @X@XM.r.Y.&.b m.. @X:X  8XOX+ wX2X  - r j } G.@.b b ; N a :X%X. OX,X,X% a     + wXeX",
"+ 4Xc :X& *X; /.s ,X@Xa 4X X= d c & N b b OXM @X$.U.T.G.1 s :X  . M a r ,X&X3 > m.i =.0.j.M ; N M s 2XM ,Xb s f *X X+ M c &   % ",
"% . o c a & N *XM y s ,XN *Xb M c r a 2Xa b M 2 Q I.T.H.} ( z.) _ -.} 7.7.7.K.G.I.J.w.q N %X& c M ; %X%Xe 2XM @Xo s :XwXp ,Xc . ",
"wXqXr   o = ; ,X,X@Xo @X:Xy %X= + c 4Xb M M #.0.] I.I.I.T.I.5.Y.T.T.T.Y.T.T.I.J.w.x.k M t *Xs y b N a *Xs y r o   4X0X+ %X*X  4X",
"= & N 0Xs m s N wX4X,Xa M @Xf N OX:X; M a R I.T.0.4.I.T.T.T.5.6.G.G.0.' *.g.h %Xl a OXy ; & ,XN &Xa %X:Xs M ; y @X,Xc   uX. 2Xa ",
"M %X= s rXs OXOX:X= = @XN ,X%X X@X; & %X7 F.T.Y.Y._ H.T.T.T.F.E 9 j 8Xl s @XM m.0X0Xb M ,Xc a wX%X2XM N b r s M s %Xr :Xs % M ; ",
"& a yXs s qX XOX@XM   ; b c c r s c a OX] T.T.Y.T.0.4.F.F.C.N.U 0X%   %X3 N c :X= p b   ; b /.y %X@Xc M & + ,Xs N c y y a @XM y ",
":Xc o c A M A s s /.%X  r c a %X@Xs N #.I.T.I.Y.I.Z.B S `.'.'.).f 2XM = s s y N qX= M @X; % N OXN . :Xy o N N s y y a @X,Xb OXa ",
"& + uXOX*X@Xy b *X= @X%Xb = a y %X%X9 F.I.H.l.3.B.).].6X6X5X6X6X).*X,X2Xb = y @X0XN s = *Xt N ,Xy OX2X& N N & b M a p t @Xs s :X",
"%X@X  eX:X%X*Xo  Xc t s @Xr % %X@X%X%.T.H.!.%XC ].].].`.'.].5X6XZ   N s d s N s M eXb ,X. N OXc b 3XeX%X%Xc *X@Xb c :X%X/.2X2Xb ",
"N s %Xo *XN 8X&XN d j c b @X  % a >XF.Y.h.m d '.6X].C ' V.'.6X].A = ; OXc y b /.. %X*X%XyXo b N ,X%XOX@XM m.a o @X0X,Xy 4XN %X@X",
"2XM a *X% c N 4Xs a a s *X*X0Xe @XQ Y.+.s s e '.].'.C.Y.P.E.6X_.d y p s *X*X& :Xb r :Xm.@XwX; ; M y b @Xp /.y :XqXN & a 8Xy OX@X",
"OX@X% ; N b y ,X,Xy y c r s 0X,Xq F.#.+XN y = ).6X).5.T.Y.Z._.(.*Xc d ; % c *Xa N N M M M    XN ; & a b wXb %X@Xc b M b b /.c %X",
"y @Xs r . s c & :X; OXr ,X. o :Xw.w.l s y b c (.].S F.T.Y.P.V /.s r b c r   M *Xc b 4XM c rXf ; c   y yXb s :X4X2X% c + N a M p ",
"wXa b 2XN b 0XqXOXOX:Xa c tX+X[ F.g = b *X& %XZ ].V G.T.H.Y.O.OX*XN 2XOX@Xr & 2X*X%Xb tXa & N %Xr   rXy M f N qX  ,Xp y %X= r A ",
"M :Xe & ; %Xy b *Xc s *Xr   ~.6.h @X% rX. M ,Xf '.S.P.T.4.H.%.@X@Xb @XOXp :X0XqX Xr c % eX%X% s   s @X+ rXo tXo OXr & b  X= :X*X",
"; s ,X= M M /.%XeXs M c b v.) h :X  ,X*X% qX:X$ _.N.Y.Y.^ P.} c y c N *XN & M ,X:X= p o   & 2XqXo 4X. :Xb b + OXN M b c c :Xs & ",
"M %  XN c N b &Xc M @X= 1 +.W.+   %Xy y ,X,Xy + Z C.Y.H.! y.5.l OXy 4XN ,Xc b b :X/.o M s % + . + qX; :X&  Xy b c 2X%Xs 0Xb r c ",
"y r s 0Xy N @XM @X& m ( 6.6 rX%   *XM ; ; M @Xc f C.T.F.J U.F.i M ; @X@X; ,Xm %X. a ,XqXr :Xd . =   % a s = OX:Xb t c ,XN ,Xa N ",
"; b :Xs M M M N b % | ) 0 > :XX M   @Xc M M s 4XN ' T.` K U.G.2 M N s :Xs r r % . 4X2X. *X2X  ,XeX0Xr     e = ,X2Xc = N :XM b y ",
"%X%X; M M % y M . qXF ,.q.w.4.` &.x.W U g.h j.#Xk 7.T.^ :.P.G.z *Xy %X,Xc M ; a N ,XM   uX  ,Xd . & N rXr c s :XqX0X%Xc b %Xc @X",
"M ; ; %X; y 4X  tX XG U.T.T.Y.Y.T.T.T.T.T.Y.Y.I./ F.H.! >.y.G.&X@X2XM N b ; s A s %X; :Xs % M & M ,X& y uXa OXN ,Xo c s %X*X%X@X",
"c b e %Xo b % <X@X%Xn { Y.T.Y.6._ ` r.U.U.P.P.q.! I.7.H ;.8.6.t @X@Xc M & + ,Xy OXd y t s %XM ; & b wXp b qX Xb @XM   e s M y s ",
"%Xs b  Xd b s c *X@XM 3X+.H.T.T.H.) F D G L K ;.! I.~ 4 K >.$.N N . ,Xy o OX Xa = y s %X:Xc  Xa N M . N c N N N p *XN o y s c ,X",
"OX@Xa 0Xa &  XrX&X; N b N w _ H.T.T.H.#.i # 8 n n.I.0 ; n 5 u 8Xr @X2X= N N = b N y r = @Xb s %X= & tX:X/.,X; v *X= @X*Xa a ; N ",
"%X*XN *Xs 4X4XA + c +Xb @X%X@XQ.) G.T.T.6.h c b #.w.l ,X+ M M s b 4XeX%X@Xc *XOXc b ,X*XN 2X3Xb @XM . tX@X*X%X+ N b p r :X+ = :X",
"c 2X:X@X%X%Xy @X@X*Xa %X*XqX4Xb M 9 E w.I.I.} j.~ =.,X+XuX& a @X:X:Xs %XN s M . :X0X%Xr 2X@X@X@XM M M   3Xv eX/.b c a b M @X  o ",
"%Xc b b y c j a N & @XM . qXc e @X= ; y m.z.w.' 5.R m.b N qXy % M r N @Xs @Xa :X,XOXa s ,X; OX@XOXM s *X= a OX,Xd s s s &X3X4Xs ",
"s N M :XOX& y d ; OXN   s %X= M %Xv N = & y  X+.H.~ <.%.A . a :X= ; y M eXM *XM M c b y @X:XN b N M = r @Xc = wX%Xy y s & y 4X8X",
"p b M a r M M d s ,X. r b M M *Xr b b a a O 0 I.I.! e.7.8 yXOX% b   a tXr N OX0X,X% N o M = b c s M s ; . v a y %Xs N s 2X  % wX",
"% b = N %X; *Xc OXr a s %Xb ,X%X,X X:X+Xv [ F.-.b.v.q.=Xb % s ,Xr o 0Xs N a %XqXo :X; e %X; ; N 2Xs c :XN  X4X,XM @XOXy c uX@X= ",
"/.%X  uX. y :X*X= a s c *X&Xb %X@Xp @XA +.&.$XwX%X1 0., 0X2X% a o r *X. uX  rX+ M p & M M y *X@Xs 2X= ; e @Xr b :Xs M *X= + ,XOX",
":X  4X@X% 0X0X  & ; M y %Xc b s r c b m.Q.= s :X*Xt U ( @ + :X0X+ 2X. @XN s % N M OXM b c ,Xs % ; b %Xr M c OX2X0Xa OXs y %X  @X",
"o b @X; qX2Xy + *X X:Xa *X@Xr M /.c qXOX%Xb M c 2XOX* 0 u ; + o & qXr *X  ,X; @XM ,X%Xa wXc y b y r @Xb a *X@X@Xc %Xs y r N ,X  "
};
