/* XPM */
static char *earth1712636833[] = {
/* columns rows colors chars-per-pixel */
"64 64 256 2 ",
"   c #010101",
".  c #03070D",
"X  c #0C0B0B",
"o  c #040B18",
"O  c #0D1415",
"+  c #141414",
"@  c #13151B",
"#  c #1B1B1B",
"$  c #271A0F",
"%  c #152418",
"&  c #1D3616",
"*  c #342B15",
"=  c #25391B",
"-  c #071527",
";  c #091128",
":  c #081A34",
">  c #0A233B",
",  c #152730",
"<  c #232323",
"1  c #222927",
"2  c #2C2C2C",
"3  c #283D24",
"4  c #2F3331",
"5  c #343434",
"6  c #393939",
"7  c #3C3C3C",
"8  c #4F3113",
"9  c #6D3812",
"0  c #46372B",
"q  c #6C3D20",
"w  c #264E1B",
"e  c #2A5B1C",
"r  c #2A4628",
"t  c #32502F",
"y  c #2E4A34",
"u  c #336725",
"i  c #386A35",
"p  c #4D463A",
"a  c #614E22",
"s  c #695032",
"d  c #477434",
"f  c #0C1C47",
"g  c #0C2A49",
"h  c #152B47",
"j  c #18314C",
"k  c #0E2953",
"l  c #122B58",
"z  c #0E3458",
"x  c #13355B",
"c  c #2A374D",
"v  c #133467",
"b  c #143A66",
"n  c #253C70",
"m  c #15455B",
"M  c #114B5A",
"N  c #2F4E51",
"B  c #366C51",
"V  c #144468",
"C  c #114B6D",
"Z  c #154374",
"A  c #17497A",
"S  c #144A7C",
"D  c #264466",
"F  c #374968",
"G  c #274976",
"H  c #315574",
"J  c #336672",
"K  c #444444",
"L  c #434F44",
"P  c #4C4C4C",
"I  c #4F564B",
"U  c #535353",
"Y  c #555857",
"T  c #5C5C5C",
"R  c #65584A",
"E  c #4C724E",
"W  c #766A4E",
"Q  c #4D586C",
"!  c #4F6B6C",
"~  c #586579",
"^  c #646464",
"/  c #676866",
"(  c #6B6B6B",
")  c #6D716E",
"_  c #747474",
"`  c #747779",
"'  c #7C7C7C",
"]  c #8D5F26",
"[  c #966E34",
"{  c #A97A31",
"}  c #927751",
"|  c #A47C47",
" . c #8F7F6C",
".. c #4C8A38",
"X. c #538D4A",
"o. c #699554",
"O. c #5CA24E",
"+. c #6BA75B",
"@. c #518B6C",
"#. c #729171",
"$. c #75AE6A",
"%. c #7CC470",
"&. c #B58939",
"*. c #AFA930",
"=. c #CE9F39",
"-. c #918956",
";. c #A88548",
":. c #B58B46",
">. c #AA9452",
",. c #A9B25E",
"<. c #908970",
"1. c #A8936C",
"2. c #88B96E",
"3. c #A9AB72",
"4. c #C89B4C",
"5. c #D5AE50",
"6. c #E3B44C",
"7. c #E6BD58",
"8. c #D0B46E",
"9. c #94C976",
"0. c #92CC76",
"q. c #AED076",
"w. c #ECC75D",
"e. c #D2CD6F",
"r. c #EBC867",
"t. c #EFD171",
"y. c #F3D878",
"u. c #F5E07C",
"i. c #174D83",
"p. c #1A5186",
"a. c #16548B",
"s. c #1C558C",
"d. c #1D5B93",
"f. c #1B5B96",
"g. c #265888",
"h. c #35578B",
"j. c #245C96",
"k. c #1F6097",
"l. c #1E629C",
"z. c #27649A",
"x. c #346D92",
"c. c #356996",
"v. c #1F65A1",
"b. c #2265A3",
"n. c #236AA4",
"m. c #246DA9",
"M. c #2B6DA8",
"N. c #326FA7",
"B. c #2572AD",
"V. c #2A73AD",
"C. c #3776AA",
"Z. c #2675B2",
"A. c #2976B2",
"S. c #2B7BB5",
"D. c #2B7DBA",
"F. c #337BB5",
"G. c #445E83",
"H. c #486589",
"J. c #52718B",
"K. c #697687",
"L. c #747B88",
"P. c #677990",
"I. c #487AA9",
"U. c #3A838E",
"Y. c #2D82BD",
"T. c #3383BB",
"R. c #3A84B9",
"E. c #4F8893",
"W. c #758B8D",
"Q. c #60A89A",
"!. c #508CB1",
"~. c #7591AB",
"^. c #73B1AF",
"/. c #2E85C3",
"(. c #348AC5",
"). c #378AC4",
"_. c #348DCA",
"`. c #3792CC",
"'. c #3B93CD",
"]. c #2D93D3",
"[. c #3B96D1",
"{. c #3C9AD4",
"}. c #3AA4E1",
"|. c #4F92C7",
" X c #4597CA",
".X c #439CD4",
"XX c #469CD5",
"oX c #629AC6",
"OX c #49A4DA",
"+X c #56A8D3",
"@X c #56A9DA",
"#X c #70B0D4",
"$X c #4AABE4",
"%X c #51ADE3",
"&X c #59B4E7",
"*X c #67BBE8",
"=X c #78BBE5",
"-X c #77CBDA",
";X c #76C5EB",
":X c #75C8F1",
">X c #838383",
",X c #898887",
"<X c #8B8B8B",
"1X c #90988E",
"2X c #868D97",
"3X c #939393",
"4X c #93969B",
"5X c #9B9B9B",
"6X c #A89D8C",
"7X c #91B092",
"8X c #A9AA92",
"9X c #8F99A7",
"0X c #99A5B6",
"qX c #93AAB5",
"wX c #A3A3A3",
"eX c #A2ABA4",
"rX c #ACACAC",
"tX c #A9B1B7",
"yX c #B4B4B4",
"uX c #BBBBBB",
"iX c #CDB58C",
"pX c #90CA88",
"aX c #98D988",
"sX c #B0EA91",
"dX c #AAD0A6",
"fX c #D3CC8C",
"gX c #F3D789",
"hX c #F0D793",
"jX c #D0EA9C",
"kX c #F6E48F",
"lX c #D0D3B4",
"zX c #F1DAA7",
"xX c #D2F1A7",
"cX c #F9E6A9",
"vX c #F6E4B5",
"bX c #8BB1D0",
"nX c #ACB8CA",
"mX c #8ABCE1",
"MX c #98D3D7",
"NX c #B1CAD3",
"BX c #8DCDEB",
"VX c #88D1F3",
"CX c #97D7F2",
"ZX c #B0D4EB",
"AX c #A7DCF2",
"SX c #C3C3C3",
"DX c #CBCBCB",
"FX c #C5D2D8",
"GX c #D6D6D6",
"HX c #FFEEC9",
"JX c #CAD8E9",
"KX c #D5E1ED",
"LX c #DBE7F3",
"PX c #E8E8E8",
"IX c #EAF1F7",
"UX c #FAFAFA",
/* pixels */
"  rX( P U T <X( wX_ 3XK <X3X7 U >XK ,X5XU 5X' wX# P uXuXP ' _ # < + 2  .~ 6 4XwXT ( / wX .FX_ / U Y ( uX^ >X4X>X>XU 4X@ >XK DXc ",
"'   5XK U <XT uX<X>X,X_ K <X^ K / T ^ 5XP _ 6 6   wXGX7 T GX  4XGX,X6   X 0 5 yXrX/ 5 ,XwXU T P 2 _ wXU ` <XL.<.^ O /  .>X6 3X  ",
">XrX+ 6 wX_ T wX .K L.7 7 K rX^ 5XT 5X5X) ^ K 6 3XrX(   UX+ ' >X< P rXyXK ( 7 ,XPXuX<XP 3XL._ _ ,XwX6 _ ^ 2 0 ( < IX+ UX  3Xp 0 ",
"c <.IX( U L.>X>XSXSX_ >XwX( U GX3XrX/ 5X/ P P 3XT <XK 3X>X< 3X< ( L.@ ' IXU 3X5XwX4 U >X' rX3X<XL.0 5 wXK K wX  IXU U ^ ^ KX  / ",
"DX2 X wXU  .( ,X6 T / X 2 _ ) U 4XL.T _ P   NXT W 1.-.@.H.I.I.C.m.!.bXC.J.nXP.^ 4X(   U / T P P ^ / P >X+ ( 4 nX3X,X3XU UX< X _ ",
"uXuXP < T P P 2XGX5 T >XK K / L._ P  .~ X ^ 6X-.1.7XQ.!.W.1X6X6X8X^.!.].].]._.|.U.9X~ + K / ) _ <X^ ,X( U '  .T 3X3X_ SX_ U K K ",
"^ yXrXwX( U P ) yX>X/ 6 5X0 / SX0 / GX3 <.-.3.>.,.1X!.J.} 5.7.r.w.t.fX#X}.}.}.{.}.T.^.7XT y T U <.<XT nXK 2 3XDX5XK ' / 3XU 6 >X",
"+   3X/ / T ) / >XGX/ 5X@ >X_ / ' 6XuX>.>.,.E.^ 4.w.~.F.( 6.7.r.gXhXhX#X$X$X$X$X}.E.pXaXaX#.E 1X4X<X( uXU uXuX>X# T _ _ 3X<X5XrX",
"wX2 < 5XP P _ >X< <XtX>XUXX ( >XwX1.| >.-.W.!.<.r.8X!.I.1.7.hXhXiX6X9X+X^.*X$X&X$XU.%.sXaXaX0.O.) GX3XW.wXwXT ' >X5XP ,XuXDXyX( ",
"_ 6 U P rX>X6 5X( 7 5X2X>XPX5 [ | -.<.I.T.W.J.[ 1X_.D._ 7.gXiX<X~.XX%XJ.*.dX&X&X&X}.@.0.aX@.0.sXpX/  .( K T P / ) 5 wX( 5 SX_ U ",
"rX^ T K @ _ 5XP ` _ )  ._ *  .| >.@.V.A.#.7.1XC.!./.z.R 4.iXoXXX$X%X$XR.E.#X&X&X&X&XQ.O.pX^.@.0.sXpX<.wX<XK 5 ( 4 <X( X Y 3X< >X",
"T K ' U P   ' ,X .~ GXT ^ 1.| | >.#.C.K.4.7.3.[.].].D.z.J.oXOX}.OX$X%X%X&X&X&X&X&XQ.2.9.U.-X^.aXsXsXaX#.K Y _ ( _ wX# 2 >X^ ' 3X",
"<X3X5X3X/ T # wX3X' / DXQ / ;.;.:.#.) :.:.5.r.^./._.].{.{..XOXOXOX$X%X%X&X&X&X&X|.@.9.sXoX^.sXjXsXsXsXaX7X4 5XT 4XU 6 ) >X' wX3X",
"3X^ 5X^ ) 2XDXDXwXT _ J ! } } ;.;.;.&.&.&.&.4.7X X].[.[.{.}.{.$XOX%X%X&X&X;X*X*X&XR.$.pX!.sXxXxXjXsXsXsXaXW.8X<X5 K ^ ( 5X,X_ wX",
"P ( _ 5X .4 ) uX5X4 F ! } o.d { ;.:.&.&.a y I 5.|._._.[.{.{.{.OXOX%X&X&X*X*X:X;X:X+X!.+XJ 9.xXxXxXjXsXjXsXdXtX  5 0 ( ) >X) `  .",
"_ P rX_ yXT I _ nX) ! -.;.X.N } &.&.=.5.<.a.R 4.!._.].[.{..X{.OX%X%X&X;X;X:X:X:X:X:X;X:X!.E 9.xXsX0.0.sX^.-X7X* 4XT ' K L. .c ^ ",
" .4 <XwXU <XwX' , J _ | ;.o.! | &.{ [ &.3.s.D T |./._.[.[.{.XX$XOX%X&X*X;X;X;XVXVXVXVXVXVXI.o.zXaX@.$.^.MXfXu.3.5X_ >XT >X3XX ( ",
"L./ ( _ _ T 4 p R ( } | | } [ &.:.s 4 P ~ S.S.Y./._._.[.[..XXX@X%X@X#X*X;X;XVXVXVXCXVXCXVXbXfXHXDX;X=XQ.#X8.y.y.6X,X/ ^ 6 rX^ U ",
"yXT 4X5X( T 7 W } } } } } [ [ [ ;.H v.n.Z.D.Y.Y.)._.'._.[..XXXOX@X@X&X*X;X;XBXVXCXCXCXCXCX2XzXvXlXVX:X;X:X~.8XfX8.Y <XK 5 6 rX_ ",
"5X3X,X` _ P Q  . .<.<.} W s 0 a Q l.m.A.Z.S.Y.Y././.'.'.[..XXXXXOX&X&X;X;X;XBXCXCXAXCXAXCXP.4.gXMXMXMXBX:X*X%X#XfXlX_ >XuX^ U SX",
"W.5XT T P # 2X .<.<.#.E ..t x A j.M.M.A.S.S.D./.).)._.'.'..XXXXX+X@X&X*X;X;XBXCXCXAXAXAXAXmX#.eXNXjXcXzXMX:X-X#XdX4.T   6 ^ <XT ",
" .0 <XU < U >X<.1X#.E X.i V g.j.b.b.m.B.Z.S.D.D.)._./.'.'.'.[.XXOX@X@X&X=X;XBXCXAXAXAXAXAXCXCXbXhXcXcXcXvXdXjXjXlXe.' ` 5 5 L. .",
"Y T nX6 T W. .,XW.! X.i V g.z.z.b.b.m.m.B.A.D.D.D./._._._.'.'..XXXOX@X&X*X;XVXCXAXAXAXAXAXCXCX4Xt.hXzXvXcXkXkXkXgXe.<.5 4XU _ wX",
"/ yXPX5X4X) <.T E i y M g.x.z.z.j.b.b.m.B.Z.D.D./._._._._._.'..XXXOX+X*X*X;X;XCXAXAXAXAXAXCXCX~.7.y.hXvXvXkXkXkXgXe.3.wXX >X` >X",
"yX5X4X,X( L.t , N X.b g.g.x.z.z.j.b.b.b.M.A.F.oXbXmX#X_.]._.'.[. XOX@X@X*XmXBXZXAXAXZXAXAXAXBX8Xr.gXzXvXvXkXu.u.u.fX7XSXGX+ _ <X",
"` U 2 rX#.) , G ~ O.D g.c.c.j.g.f.j.b.b.b.I.bXnXJXKXLXmX[._._.'. XOX@X@X#XZXLXIXIXLXZXAXAXCXeXr.t.gXcXvXcXkXu.u.u.e.7X1X1XGX2 5 ",
"P 5 L.U 5XL j h.! E V c.x.c.j.s.f.f.f.f.N.9XrXnXnXFXLXIXmX_./._.'.XX+XoXbXFXJXLXIXUXIXZXAXmX3.r.y.zXvXcXcXkXu.y.u.e.pX#.T < ^ 5X",
"(   2 IXK.N c c.B D G c.c.g.s.g.s.j.f.j.2X9X0X0X0XnXFXLXZX[./._.'.XX|.~.nXZXJXJXLXUXUXLXMXbX-.7.gXzXvXcXzXgXy.t.t.t.%.o.T PXI 4 ",
"(   yX` ~ N N E B B G x.j.s.g.s.s.s.i.H.9X9X2X^ R  .0XJXKX|././._.{.R.~.nX0X}  .6XJXIXIXZXqX} 5.t.zXzXzXkXy.t.t.t.e.Q.tXT 6 4XL.",
"5 0 wX< 9XW R 1 j X.J d.g.G A p.p.p.A P.9X2XT 8 8 R <XnXKX|.D./._.|.I.9X0XP 8 q 1.1.KXIXJX#XR 4.8.zXhXgXt.w.w.t.t.q.aX!.lX>X< 5 ",
"X rX< ( P.( d , v F E X.J A S p.i.i.n P.2XL.0 $ X 0 } 9XJX|.D././.|.c.P.P.8 o X s W FXLXZX#XU [ 4.r.r.r.w.w.w.t.e.0.pXE.; # DXGX",
"# yXT 5Xh.H.R t n H X.X.B m A A G Z v P.L.L.0 $ X * q 2XNX/.D.D./.).h.H.K.* $ $ 9 W nXJXZX#Xh.q :.5.8.7.w.w.w.w.q.0.9.!.^ 2   2 ",
"< . O ^ H.H./ E l H i i N z C Z A b x ~ 2XW.0 * * 8 R 0XbXD.D.D.D.).N.Q J.2 8 8 a _ FXFXmX#XC.4 ] =.=.6.6.6.6.5.0.0.0.bXP wX^ X ",
"GXDXK @ Q H.! E h G D m M V V V V b z D K.L.L.0 0 p L.nXR.Z.Z.D.T.F.F.G Q ~ p 0 ) tXNXFX#X@X Xn 0 [ =.=.&.[ &.2.0.0.%.!.4X5X  uX",
"6 < ' SX~ h.Q E , Z p.A C M V V b b l l F ( K.W.L.9X0XI.Z.Z.Z.D.D.F.R.c.n ~ L.9X0XtXNXbX+X+X|.M.l 0 }  .I.h.i 2.9.9.2.U.UXX rXY ",
"_ 3X5 Y wXH.h.U y N B M M C V m V x l l l D Q Q J.P.I.m.m.m.Z.Z.F.T.F.F.h.c Q K.2X9X~.+XXXXXXX|.N.c.F.|.XXD.i $.9.9.$.9XT $ _ N ",
"2 Y IXT Q G.h.G P Y d ..B M M M m z b z z z b D G j.b.m.b.m.Z.Z.S.S.T.F.N.c.G h.x.E. X X X.X.X X X'..XOX$X XN O.9.2.Q.H.U ,X_ P ",
"wX/ + ^ _ G.H G Q Y N t X.E z M m b b b b Z S i.f.j.v.b.b.b.b.Z.Z.S.Y.T.F.C.T.R.R. X'. X X.X X X.X.X.XOXOX.XV X.$.9.#.W.yX( >XU ",
"2 # UX .<XQ h.Q ^ E t t i O.i M M z V V Z Z S a.z.l.f.l v b.v.v.B.Z.S.M.j g.R.R.R. X`. X X X[..X.X.XXX$XXXOXp.d $.2.E.Q ,XT T wX",
"3X<X  KXwX~ H H / I y y t i ..X.B M M C Z S i.a.d.f.d.f f v i.f.n.n.j.g ; A T.T.`.R.R.R.`.`. X[.{.{..X.XXXXXz.i +.+.~.5X>XyXyX( ",
">XU 3X+ 5X~ H Q I N t y t t u ..+.C M M C S a.a.a.d.v.v k f f v v l f ; ; j.F.D.F.).).).(.`.`.`.[.{.{..X[.OXx.B 2.+.9XK uX .3X<X",
"yX_ U 5X< ^ F F p y 3 r t t t u X.@.M M C C S a.a.a.v.l.v v v l k f f ; v V.F.D.F.).T.T.(.(.(.`.`.'.[.'.'.{.U.+.$.@.F U nXP >X<X",
">X,X< 6  .( F n p t r r r w w u i O.E M M C C a.i.a.a.m.j.G n n v k : f j.A.S.F.T.F.D.T.Y.T.(.)._._.'.'.'.'.$.$.$.J.' ( ) >X/ 3X",
"U ,XT K . T T n N p y 4 r r r e u ..O.O.X.J C S i.a.a.a.C.C.v.j.Z v i.b.B.A.A.A.A.S.S.S.Y.Y././.(.(.).`.'.E.0.$.@.D ^ + ' U ) U ",
"GXU ( rXL.( uXL.F p r 3 3 3 r w e u u u ..+.U.M i.i.i.a.a.l.Z.B.b.b.b.b.m.Z.B.B.V.V.V.S.S.D././././.).).R.@.+.o.J wXU P 3X5 P L.",
"_ wXK 2 7 3XP ^ F c r 3 3 3 3 w e e u u u ..@.M b i.i.i.a.a.d.k.b.b.b.b.b.m.m.m.m.V.B.V.Z.S.D.D.Y.Y.).F.g...O.o.L.K 2 ( >X5 5X5X",
"0 T rX6 _ _ L.5X2Xc y 3 3 3 r & w w e e u u u z b Z S i.a.a.a.d.f.f.v.b.b.b.m.m.n.M.B.B.B.Z.Z.A.F.F.F.N.N ..X.K.' ` ( / ^ wXT 2 ",
"` < <X` / ' ( 5XT Q c r 3 & & & & w w e e u > g z b b C S S a.a.f.f.f.f.v.v.b.b.n.n.m.B.B.B.Z.Z.A.V.F.G e E ! _ T yX3XT SX/ K / ",
"P 0 T DXK <.2X( 3Xh F 5 2 = = = & & w w e u , > z z C C Z S i.i.s.s.s.j.d.j.z.b.b.b.n.m.m.m.m.m.M.M.z.h w B L.wX_ P ^ wX .wXY L.",
"c ( rXT ' ` _ ` ( < Q l 4 0 = & & & & & e .., > g z z v b C Z S A S p.s.s.d.d.j.l.l.v.b.b.b.b.b.b.c.h., c F 2 wXyX/ 6 ' wX` ) K ",
"3X3XK ( ( < U _ X UX. 4Xj s q * & & & & w u % : g g z z b b V Z A A S p.s.s.s.s.f.d.f.l.f.b.j.z.g.g.n G F ^ T wXSXDX3X/ ( 3X/ <X",
") 5 K 3X7 P uX  PX<XT ^ Q c s q 8 * & % & w O : > g k z z v b b V Z A S S p.p.s.s.s.s.f.s.j.g.j.h.G n Q UXT ,XL.wX+ ^ T 3X5X4X,X",
"^ ( K <X+ _ < rX<X4XL.T PXc 2 q 9 9 8 * X - - - : > g g g z x b b b Z Z A A i.S p.p.p.p.g.G p.G G D 9XU / DXL.) <X_   K T _ P T ",
"5XT _ ' T _ Y ^ 5X,X_ GX^ T c c 9 9 9 9 $ o - - - : : g g g g z x b b b n A A A A i.i.A G G D D D T o <.^ '  .` U 5X` + P T ( wX",
">X,XU DXU 2 ' PX5X6  .( >XT 7 ( c 9 8 8 + - - - - - - - > > g g k x z x b b Z b Z b b D n b l Q c 2 PXwX>XrX6 / 5X5 ,XwXU U 0 L.",
"3X5X' 5XT yXSX' @ ( ,X( <X5X5XrXO $ q * O O ; ; o o - - - : > > h g g z j x b v b b x x l K >X( <X_ X PX3X5X3X# ' ( U K 5X< 5 wX",
"^ yXwX,X3X4XP <X<X5XU 3X5XDXuX( ' P 0 R 2 % o ; o o o o ; o - : : , > h g h k g h h > , L._ ,X,X_ ) _   yX^ KX .( ^ U ( ) <X  + ",
"3X^ ( ( U ^ T P  .5 <X_ X DX/ 7 ,X6 c R ,XT % o ; o . o X O o o O - ; : : : : : , 6 6 P tX0 >X3X,X_ T 5X5 Y >XyX^ Y Y T 5XuXuXT ",
"T L._ wXL.2 P T c ,X .  ^ <X5 ' 3X/ _ 5 2 U >XP Y 2 < + . . . . . X . . # < K P T T ( P <XwXL./ ` ) 5 K ,X^ 6 DX3XP P ^ 2 P uXuX",
"P ) ` T 0 _ ` ^ T wXo K / _ _ 5XK ( ) U I $ T ,X^ ( nXT 7 rXY @ N   6 yX6 ) L.lXrX< ' # _ 2 ( / Y ' T 6 X ( U K 3XT _ T yX  < GX",
"< ( 5  .3X0 5X/ ,XK U T 3X( rX3XwX>XrX>X( U 6 rX5XwXU PX_ < U rXP + SXT _ U 3XDX+ wX6 K 4X0 K ` yXT ( wX' >XSXrX_ ,X>XP ^ UX,X2 ",
",X3X  UXX P wX5X5 U U / 5X4X( 3X<XY <X,XT ' yXPX3X2 <X@ SXuX< U + K 5XX UXX PX+ _ U 2 ( ` P 5X2XT yX5 6 K ,XP ( wXT _ 5X6 # rX,X",
"5X  nX3X< SXSX  2 K _ P 3X^ ( T P T ( <XyX5 T wXwXP 5 X O @ wXDX+ yXX <X' T < ' _ >X` ( T tXT < 0 ( 3XK _ ^ ,XyXSXU >XT P 3X  ,X",
"@ ) ,X0 SXyXU # wX' wXU 5X<XK _ >X^ DX>X3X) _ T yX>X5 ' ^ 0 # X 2 DXK 5X  rX6 <X_ rX3XP GX^ P ) P K ,X( Y 5X>X,X/ 3XT K P ` yX  "
};
