/* XPM */
static char *mars1712636834[] = {
/* columns rows colors chars-per-pixel */
"64 64 195 2 ",
"   c #010101",
".  c #0C0C0C",
"X  c #141414",
"o  c #1B1B1B",
"O  c #372417",
"+  c #32251D",
"@  c #37281E",
"#  c #39291E",
"$  c #242424",
"%  c #2C2C2C",
"&  c #352922",
"*  c #3C2D23",
"=  c #3B312B",
"-  c #343434",
";  c #3D3734",
":  c #3C3C3C",
">  c #462D1C",
",  c #4D321C",
"<  c #422E20",
"1  c #453123",
"2  c #4C3525",
"3  c #45342B",
"4  c #4A362A",
"5  c #4D392D",
"6  c #503724",
"7  c #533925",
"8  c #5B3C25",
"9  c #543C2C",
"0  c #5A3E2A",
"q  c #443832",
"w  c #4C3C31",
"e  c #543D31",
"r  c #593E31",
"t  c #613F24",
"y  c #57402F",
"u  c #5D412C",
"i  c #4F413B",
"p  c #554133",
"a  c #5B4334",
"s  c #53453B",
"d  c #5D4639",
"f  c #5E4A3C",
"g  c #624126",
"h  c #6C4525",
"j  c #64432B",
"k  c #6A462A",
"l  c #6D492D",
"z  c #714624",
"x  c #754A26",
"c  c #784C27",
"v  c #734C2D",
"b  c #7B4E29",
"n  c #77502F",
"m  c #7E512C",
"M  c #624634",
"N  c #684731",
"B  c #654935",
"V  c #6B4B34",
"C  c #614738",
"Z  c #654A39",
"A  c #6C4D3A",
"S  c #734E32",
"D  c #714E3A",
"F  c #6F503C",
"G  c #755134",
"H  c #7B5434",
"J  c #74523B",
"K  c #7B553C",
"L  c #7E583D",
"P  c #444444",
"I  c #4E4643",
"U  c #4C4C4C",
"Y  c #514945",
"T  c #5D4D43",
"R  c #5E524A",
"E  c #535353",
"W  c #5F5A57",
"Q  c #5C5C5C",
"!  c #674F42",
"~  c #655144",
"^  c #6C5342",
"/  c #62534B",
"(  c #6A564B",
")  c #735541",
"_  c #755843",
"`  c #765846",
"'  c #7B5942",
"]  c #625B57",
"[  c #6C5C54",
"{  c #715E54",
"}  c #66615E",
"|  c #6B605A",
" . c #7A6356",
".. c #72635B",
"X. c #646463",
"o. c #6A6664",
"O. c #6C6C6B",
"+. c #776860",
"@. c #746B67",
"#. c #736D6A",
"$. c #76716C",
"%. c #7C716C",
"&. c #747474",
"*. c #7B7674",
"=. c #7C7C7C",
"-. c #83542E",
";. c #825734",
":. c #885730",
">. c #835936",
",. c #8B5A32",
"<. c #81573C",
"1. c #845B3B",
"2. c #8B5E3B",
"3. c #915E34",
"4. c #8E613D",
"5. c #956136",
"6. c #996337",
"7. c #93633D",
"8. c #9B663B",
"9. c #9E693D",
"0. c #A36A3C",
"q. c #AB6E3C",
"w. c #B06F39",
"e. c #AE703D",
"r. c #B4733D",
"t. c #BC753B",
"y. c #BD783F",
"u. c #835C41",
"i. c #895E40",
"p. c #866245",
"a. c #8B6243",
"s. c #926441",
"d. c #996641",
"f. c #9D6A42",
"g. c #976B48",
"h. c #9E704B",
"j. c #826A5E",
"k. c #A26D42",
"l. c #A96F41",
"z. c #A47046",
"x. c #AC7243",
"c. c #A4734B",
"v. c #AD7649",
"b. c #AF794D",
"n. c #B37543",
"m. c #B97742",
"M. c #B77947",
"N. c #BC7944",
"B. c #B07749",
"V. c #BD7D4A",
"C. c #A87750",
"Z. c #AB7952",
"A. c #B27D53",
"S. c #847369",
"D. c #90786F",
"F. c #857A75",
"G. c #8B7A72",
"H. c #837D7B",
"J. c #887E79",
"K. c #C37D45",
"L. c #C97F45",
"P. c #C17E49",
"I. c #B78055",
"U. c #BC8254",
"Y. c #82807F",
"T. c #89817D",
"R. c #998179",
"E. c #C78046",
"W. c #CB8045",
"Q. c #CA8249",
"!. c #D08E5A",
"~. c #848383",
"^. c #8B8583",
"/. c #898887",
"(. c #8B8B8B",
"). c #968B88",
"_. c #9C928D",
"`. c #939393",
"'. c #9B9494",
"]. c #9B9B9B",
"[. c #A19696",
"{. c #A39C9A",
"}. c #A3A3A3",
"|. c #A8A4A2",
" X c #ABABAB",
".X c #B5B5B5",
"XX c #B8B7B6",
"oX c #BABABA",
"OX c #C3C3C3",
"+X c #CBCBCB",
"@X c #D3D3D3",
"#X c #DADADA",
"$X c #E1E1E1",
"%X c #EEEEEE",
"&X c #FCFCFC",
/* pixels */
"   X&.U E Q (.O.}.&.`.U /.`.: E ~.P Y.].E }.=.|.# F ).T.f f f  .+. .F ..~ y =.`.W O.O.}.=.+X&.o.E E O.oXX.~.`.~.~.E `.o =.P +X: ",
"=.  `.P E (.Q oX(.~.(.&.: `.X.: X.} o.].U O.y u h +.f = s @.T.`.).(._.T.Y.` 7 A ../ q ~.}.E Q U % &. XE *.(.Y.~.X.. O.=.~.: `.  ",
"~. XX : }.&.Q }.=.P =.: : :  XX.`.Q `.T.B h h z n ~ 3 y j.R.T.{.].T.T.'.{._.K t g t j 0 *.=.&.&.~.}.- &.X.% : O.% %XX &X  `.: : ",
": ~.%XO.E =.~.~.OXOX&.~.}.&.U #X(.T.u t h k h n 4.+.i 3  .T.R.R.$.$._.[._.T.L k k j j t t ( %.J.=.: - }.P P }.  %XE E X.o.$X  X.",
"+X% . }.E Y.O.~.- Q O.. % &.&.Y F u g j k l n H 4.R.L n j s s s i i s s p y y u v k k j j t t 0 W X.U ~.X O.- oX`.(.`.E &X$ . &.",
"oXXXU $ Q U E (.@X- Q =.P P ! 8 g h j l m m :.,.-.4.7.3.,.V p p y p p p y y u n H S S v k k j t 8 C F.O.E =.=.E `.`.&.OX&.E : P ",
"X..X X}.X.E U O.oX~.o.: J.h h j k l m ,.:.,.,.,.3.3.3.5.5.L G F B V Z V Z V V H H H S S v v l 0 2 t l {.P % `.@X].P =.X.`.E : ~.",
"X   `.o.X.X.O.O.~.#Xo.S.h x x k l n H m H H H ,.3.6.6.6.6.5.' G F F F F F V Z V G H H H S S N 9 < 3 t N C .XoX~.o Q &.&.`.(.]. X",
"}.% $ `.U U &.~.o (.D.z x c l V S n G H H L L H 4.8.8.8.9.5.1.K J J J F A A Z Z Z V H K H H S l u 0 k z h S.] =.~.].U /.XX@X.XX.",
"*.: E U  X~.: '.O.0 z x c v v v n n H L 4.4.,.L 4.4.9.9.9.9.9.a.L J F F A A A Z Z Z C V J ;.H G H m v c z z C X.O.-  XO.- OX&.E ",
" XX.Q P X &.}.U { z x b b v G H H ,.,.4.4.,.4.4.4.4.4.7.9.7.7.8.4.7.4.J A A A Z Z Z C M Z H ;.;.>.:.:.-.b c z ! - (.&.  E `.$ ~.",
"Q P =.E U   =...z x -.b G G H H H 4.4.4.4.4.4.4.7.4.7.7.4.' L K K K K F A ! Z Z Z C C C C M D D :.3.:.:.-.b h 8 [ }.o % ~.X.=.`.",
"(.`.].`.o.Q , v x m m m H H H <.4.L 4.4.4.7.7.7.7.7.8.8.9.4.L K F F A A A A Z C C C C C d C C M C S :.:.-.v j 9 j T : O.~.=.}.`.",
"`.X.].X.O.^. .x m -.-.H H H ,.4.7.7.6.8.9.9.8.8.8.9.0.q.e.e.0.9.4.L A A Z C C C C d C d C C C C C C Z G H S l 9 2 8 ] O.]./.&.}.",
"U O.&.].Y.g z m m -.-.H >.4.7.5.9.9.9.0.0.0.0.0.0.q.e.9.6.0.w.w.e.0.G Z Z C M d r d d d d C C C Z C C V H S l 5 4 8 ^ O.~.&.=.=.",
"&.U  X&.).x x m -.-.>.,.5.6.8.0.0.0.e.0.e.e.e.0.e.e.e.H m 6.w.w.e.r.6.V C M r r r r r d d C Z ! Z Z V Z H H u 4 4 0 j T =.=.- X.",
"=.- (.'.l x b -.:.:.,.5.6.0.0.q.q.e.e.r.r.e.r.r.t.w.w.6.w.w.w.w.w.w.w.6.N r r r e r r C C C C C Z A Z Z H H B 3 4 j h V H.`.. O.",
"*.X.O.{ x c m :.,.,.6.6.8.0.0.0.e.e.r.r.t.t.y.t.t.t.t.t.t.w.w.w.w.w.w.5.C r 4 r 5 r r r C C Z A Z D K K K N 5 3 3 0 x x 0  XQ E ",
"oXQ `._ x m -.:.3.6.6.6.0.q.w.w.e.r.t.r.t.t.t.t.t.t.t.t.t.w.w.w.w.8.:.D r r r 4 5 r r C C C C A A F 1.2.<.a w 3 4 j b x h q  X&.",
"].`.#.x c -.-.,.3.6.6.0.0.0.w.e.r.r.r.t.t.t.t.t.t.t.t.t.t.t.w.w.w.w.w.i.C M r r e r r r C C A A ^ A K 4.<.d e 5 9 V m b z ( E +X",
"=.'.V x m -.:.,.6.6.8.0.0.e.e.e.t.t.t.t.t.t.t.t.t.t.t.t.y.y.e.e.l.l.w.i.C r C C r r r Z r u.r A A J u.2.2.L C e V b -.b c A /.Q ",
"~.i c c -.-.,.5.6.6.0.0.e.e.r.e.t.t.t.t.t.t.t.t.y.t.t.y.y.e.e.e.l.r.w.D D <.r N C r D r D r u.D D ) 2.7.2.2.L V S H ;.b c h *.=.",
"E ~ x c -.:.,.5.6.9.0.0.e.e.r.t.w.t.t.t.t.t.t.t.y.t.y.y.e.z.z.r.l.l.d.<.k.0.A C N C N Z r ) t ) ) K i.7.7.2.1.>.H H b -.b z { }.",
"X.j.x -.-.:.3.5.6.9.0.e.e.e.e.t.t.t.t.t.t.t.t.t.y.y.y.e.B.e.e.q.l.d.<.d.l.k.D A A N D D D D u.D K ' 7.s.s.2.2.1.;.H H -.-.x J ~.",
"|.J c b :.,.3.6.8.0.0.w.w.r.r.r.t.t.t.t.t.t.t.y.t.y.e.e.B.e.h.4.u.i.i.f.x.i.D D D D D D D D D <.K L 4.7.4.4.4.L <.H H :.m c v T.",
"+.b v l ,.,.5.6.0.0.q.q.r.r.t.t.t.t.t.t.t.t.y.y.K.t.e.z.e.U.I.4.u.d.i.k.k.u.) ) i.K D D D K J D ' ' ' 7.7.4.4.L >.K -.:.-.c z 9 ",
"C b l m :.3.6.6.8.0.q.q.r.r.r.t.t.t.t.t.t.y.t.t.M.e.B.z.I.9.' ' ` i.g.h.d.u.` i.s.D J J <.J <.<.1.u.7.7.7.4.4.4.1.H H >.-.b x S.",
"F b -.-.:.3.5.6.0.q.q.e.w.r.q.r.t.t.t.t.t.t.t.L.y.B.e.h.h.g.p.' i.u.` i.g.z.k.l.d.' u.' <.K u.<.1.p.9.9.7.7.4.4.1.>.H H -.m x g ",
"V c -.-.:.3.6.8.0.0.q.e.r.t.r.t.t.t.t.t.t.t.t.t.r.c.z.h.z.v.h.g.a.` ^ ^ i.x.v.x.l.k.i.<.<.<.<.<.7.9.8.9.8.a.4.4.1.<.H H -.m x J ",
"h c m :.,.3.6.6.0.q.e.e.r.r.r.t.t.t.t.t.t.t.t.L.y.h.h.9.c.h.h.g.Z.g.` ( i.b.x.x.x.x.l.i.u.u.i.2.0.0.9.9.d.7.7.7.,.H H H m m x h ",
"z c -.-.,.3.6.0.0.q.w.w.r.t.t.t.t.t.t.t.t.t.t.t.B.q.I.I.I.C.I.I.P.A.u.` h.v.v.x.l.l.l.d.i.i.8.q.0.q.9.f.8.d.f.8.1.1.H H S c c G ",
"z x b :.3.3.6.8.0.0.q.w.r.t.t.t.t.t.t.t.t.t.L.t.e.I.z.c.c.I.C.I.A.A.i.g.v.v.v.x.l.l.q.0.k.q.q.q.q.0.9.8.7.f.f.8.1.1.>.G S v x z ",
"z c -.:.,.3.6.6.8.l.l.r.r.t.t.t.t.t.t.t.y.y.y.N.n.v.z.c.h.C.C.Z.!.!.!.A.A.v.v.x.l.l.l.l.0.q.q.0.w.0.8.8.k.s.K d.3.d.3.<.S l z z ",
"b c b -.,.5.6.0.q.9.5.n.r.r.t.r.t.t.t.t.t.y.y.m.M.c.z.c.C.C.C.I.!.!.!.A.v.v.v.l.k.l.l.k.0.0.0.0.0.6.8.9.l.d.A k.l.k.8.;.S k h S ",
"h c b -.,.5.6.6.8.9.0.r.r.t.t.e.w.t.t.t.y.y.N.y.B.v.h.z.c.C.c.Z.A.A.P.P.c.c.z.k.k.f.k.0.9.8.0.6.0.8.d.l.d.A Z k.l.k.3.S N k k z ",
"V c -.-.,.3.6.8.8.q.q.e.r.r.t.t.t.t.t.t.t.y.y.r.M.x.z.z.h.c.c.c.C.C.A.A.z.z.k.k.f.0.f.0.l.K.L.m.8.8.l.f.! r ) l.l.k.2.N j j z h ",
"g x b -.,.3.5.8.0.q.q.e.r.r.r.t.t.t.t.t.t.t.y.n.B.9.z.h.c.z.c.c.c.A.P.P.z.k.k.k.k.f.0.l.L.L.L.L.l.8.l.s.r Z D l.d.9.H a r 7 h N ",
"G.x b -.:.4.5.8.8.q.q.q.r.r.t.t.t.t.t.t.t.y.y.m.U.e.9.z.z.z.z.h.z.A.!.P.P.z.k.g.f.8.8.l.L.L.L.L.K.n.n.x.d.i.) 0.L 6.V 9 9 < t Z ",
"2 z c -.:.:.;.6.8.0.q.q.r.r.r.t.t.t.t.t.t.t.N.E.E.E.x.z.z.f.f.z.c.P.P.v.P.P.v.x.n.l.0.K.L.L.L.L.L.K.P.l.u.d.D 9.H 7.B 9 3 < 2 ^.",
"^.v x -.:.:.,.6.6.8.q.e.r.r.r.y.t.t.t.t.t.r.K.E.Q.W.U.f.z.f.z.z.v.P.M.k.k.x.n.x.m.l.0.L.L.L.L.L.K.K.P.i.) i.d.k.H 1.9 * @ # s } ",
"H.V x m -.:.5.5.6.0.0.q.w.w.r.r.t.t.t.t.t.r.L.W.Q.Q.U.9.0.f.z.f.k.v.x.x.l.k.k.f.0.0.9.m.L.K.0.L.K.E.V.x.f.K 7.z.H C 3 & + + R /.",
"XX..x b -.:.,.5.6.8.0.q.q.r.r.r.t.t.t.t.K.L.W.W.W.Q.W.e.9.z.f.f.k.k.M.L.P.P.P.0.l.K.K.L.L.n.r K.E.N.V.z.K d 4.0.G 5 * & + + } (.",
"Y.J.h x -.-.,.3.3.0.6.0.q.m.M.n.w.q.r.K.W.L.K.L.E.W.E.N.9.f.9.9.k.k.k.n.L.L.L.w.K.L.L.K.L.n.u.P.V.M.f.4.K s S 8.N 4 & * > u } `.",
"U /.V x c -.:.3.3.6.0.0.0.n.V.K.t.r.y.W.W.L.q.r.W.W.E.E.q.9.0.M.l.m.d.l.L.L.L.8.K.L.K.K.L.l.l.P.E.d.K v.8.p B L B 0 2 7 u u &.U ",
"@XE [ x c -.-.,.3.3.0.0.k.n.M.x.n.M.m.m.m.K.0.q.E.W.W.W.r.w.r.9.l.K.n.l.K.K.m.K.L.K.L.L.L.K.K.P.M.L s.n.4.p H L N j u g g 5 P Y.",
"&.}.I h c m -.:.3.3.3.0.0.k.k.k.k.k.l.N.K.m.N.N.e.n.W.W.E.I.H H 0.l.l.l.0.8.0.K.L.K.K.L.K.P.f.i.J J x.x.L H H H G l j g Z ; }.].",
": Q  X9 h c -.-.;.,.3.6.2.3.7.2.d.d.d.k.l.f.0.m.q.8.L.W.W.y.,.7.0.0.f.f.8.8.8.l.w.m.m.m.P.i.r Z a.x.x.8.1.>.H H v l j g / }.E % ",
"&.$ ~.$.a g x v S ;.3.2.2.2.2.7.2.7.s.d.N.N.K.K.E.e.w.E.W.W.y.4.d.3.d.3.d.s.5.d.5.d.i.d.d.u.i.l.n.x.f.1.,.H H n l j g a XXX.U X.",
"U P Q OXi 8 h j l H ;.;.,.4.4.4.4.7.7.7.z.M.I.r.E.E.M.e.e.e.M.B.4.4.7.4.4.4.4.4.4.4.9.x.M.M.M.M.x.9.4.>.H H H l j g u T.Y.}.E =.",
": X.}.X.&.R 8 7 u l H H H 1.,.4.4.7.7.7.7.9.9.9.9.x.x.n.M.B.e.q.4.L 4.L L 4.L L 4.x.M.V.M.M.B.0.9.2.1.H H G v l u 8 5 *.}.$.O.U ",
"`.`.: &.O.% 4 2 2 0 l H H >.>.4.4.3.4.7.7.7.7.7.9.7.8.8.9.9.9.4.H 1.K K K K J J F L v.n.n.n.8.F F H H H n n l u 8 ^ ^.o.O.`.X.(.",
"&.: : `.: U '.1 1 3 5 j H H H >.L 4.4.L 4.4.7.7.4.9.7.7.9.7.G _ z.0.F F F V F V A F L 4.9.7.F V B H H H v l u 8 8 # X.Q `.].`.(.",
"X.X.P (.X &.$ Y.1 # * y v H H H H K H K H L 4.4.4.7.7.7.7.' L 9.V.n.J A V Z Z Z Z B V B H A B V B G G v l u 8 7 } *.  P Q &.U Q ",
"`.X.&.=.Q &.Q Q o.+ + 1 j n G G S G G J J J G 4.4.L 4.4.4.H 4.9.x.x.J f f f f B f d f B B M a a M l S j u 7 7 ~ E ].=.. U Q O. X",
"~.(.E +XE % =.$X`.= @ @ 7 j S v G G G G G F F K _ F F L _ F B F 4.9.V d d a a d a a a a d a u y u y u 7 6 6 5 } ].- (.}.E E : &.",
"`.].*.].Q oXOX=.o o.] # 1 7 l l G G H G S V V V V V V V B B B f d Z a d a s a a a a a a u a y y y 7 6 6 6 ..(.o =.O.E P ].$ - }.",
"X.oX}.(.`.`.U (.(.].U O.5 6 u h v v n n G V l V V B V B F V B V V f a a a a a p a p y y y 9 9 9 7 6 7 7 T.X.$X~.O.X.E O.O.(.  X ",
"`.Q O.&.U X.Q E *.% (.&.O ( 8 g k h l v v B B B S G H G S B B J 4.H B a a a a p y y y y 9 9 9 2 6 7 u F.; E ~. XX.W E Q ].oXoXQ ",
"Q =.&.}.=.% P Q P /.&.  X.~.7 8 t k k k l l l S S V B B a S H H H H a a u y y y 9 9 9 9 8 7 2 7 8 Z q P (.X.- @X(.U P X.% U oXOX",
"U &.&.E P &.&.X.Q }.X P X.&.$.F.u t g k k k l j u k l l S n G n n S u u y y u y 9 9 7 7 2 7 u j T *.Q - . O.E P `.X.=.Q .X  $ @X",
"$ O.- =.`.: ].O.(.P E Q '.O. X].]...( t g g u 8 u k l v v v l v v k u y y u k k 8 7 2 6 8 u p &..XQ X. X=.~.OX X=.(.~.U X.&X(.% ",
"~.`.  &X. U }.].% E E O.].`.X.`.(.E Y.$.a 8 8 u y 8 u h k h k k k g u 8 u h h g 8 2 7 f [ Y ].(.Q .X- - P /.U O.}.E &.].- o  X~.",
"}.  oX(.o OXOX  % P &.P ].X.&.E U X.O.(. Xy f | B 7 7 8 u g g g u g u t 8 8 7 y f } @.O.Q  XQ $ : O.`.P &.X.~..XOXE Y.Q U `.  (.",
"X &.(.: +X.XE o ].~.}.E ].(.P &.=.X.+XY.`.O.&.} }.$.y Z u 8 8 8 t j y F , *.y Y.$. X`.E @XX.U O.U P (.O.E ].~./.O.`.Q P U *..X  "
};
