/* XPM */
static char *rocket_left1712636835[] = {
/* columns rows colors chars-per-pixel */
"64 64 179 2 ",
"   c #010101",
".  c #0C0C0C",
"X  c #060612",
"o  c #131313",
"O  c #181819",
"+  c #1B1B1B",
"@  c #282818",
"#  c #1E1F2E",
"$  c #232323",
"%  c #2C2C2C",
"&  c #373723",
"*  c #343434",
"=  c #37373B",
"-  c #3C3C3C",
";  c #56573C",
":  c #6A6A3C",
">  c #7D7D3D",
",  c #191B46",
"<  c #393947",
"1  c #3D3D4C",
"2  c #1B1F71",
"3  c #1D2172",
"4  c #262867",
"5  c #313363",
"6  c #393C7A",
"7  c #444444",
"8  c #4C4C4C",
"9  c #55554C",
"0  c #535353",
"q  c #5D5D55",
"w  c #57575C",
"e  c #5B5B5B",
"r  c #67694A",
"t  c #777848",
"y  c #62635D",
"u  c #797B54",
"i  c #72745D",
"p  c #777A5E",
"a  c #797C5E",
"s  c #42436E",
"d  c #4F536E",
"f  c #5D5F68",
"g  c #464979",
"h  c #4F537C",
"j  c #575B75",
"k  c #595D70",
"l  c #56587B",
"z  c #646464",
"x  c #666967",
"c  c #6D6F66",
"v  c #64666C",
"b  c #6B6B6B",
"n  c #6F7264",
"m  c #727562",
"M  c #787A66",
"N  c #71716F",
"B  c #6C6C76",
"V  c #6B6C7F",
"C  c #747474",
"Z  c #75757A",
"A  c #7C7C7C",
"S  c #7D805C",
"D  c #84863B",
"F  c #9B9D3D",
"G  c #A7A93F",
"H  c #B6B83E",
"J  c #838547",
"K  c #8B8D43",
"L  c #8C8D4D",
"P  c #8F9045",
"I  c #8F914B",
"U  c #95984B",
"Y  c #9B9E4F",
"T  c #868955",
"R  c #8B8E54",
"E  c #85885A",
"W  c #939453",
"Q  c #989B50",
"!  c #959759",
"~  c #9B9C5B",
"^  c #A6A848",
"/  c #B8BA47",
"(  c #B1B448",
")  c #A3A454",
"_  c #B7BA58",
"`  c #81826A",
"'  c #9A9B65",
"]  c #86867A",
"[  c #A1A26C",
"{  c #A5A672",
"}  c #C2C543",
"|  c #C7CA44",
" . c #C9CC44",
".. c #CED143",
"X. c #D2D543",
"o. c #D6D943",
"O. c #DADD43",
"+. c #DEE144",
"@. c #E2E545",
"#. c #E6E947",
"$. c #E8EB47",
"%. c #EBEE48",
"&. c #EDF047",
"*. c #292D8C",
"=. c #2C308F",
"-. c #313485",
";. c #363982",
":. c #393D8B",
">. c #242A95",
",. c #292E94",
"<. c #252B9D",
"1. c #2E349F",
"2. c #383E94",
"3. c #363B9C",
"4. c #272DA5",
"5. c #272DAC",
"6. c #282FAC",
"7. c #2D33A6",
"8. c #2A31AC",
"9. c #3439A5",
"0. c #272EB3",
"q. c #252DBC",
"w. c #282FBF",
"e. c #2930B1",
"r. c #3E438C",
"t. c #3D4193",
"y. c #3C419C",
"u. c #454B83",
"i. c #4A4D81",
"p. c #40438B",
"a. c #57588A",
"s. c #454895",
"d. c #41459D",
"f. c #464A9C",
"g. c #585A94",
"h. c #5B5D9A",
"j. c #5E619D",
"k. c #6B6C8A",
"l. c #73738B",
"z. c #787988",
"x. c #62659E",
"c. c #686A98",
"v. c #72749B",
"b. c #7578A2",
"n. c #252EC4",
"m. c #232BC8",
"M. c #2730C6",
"N. c #2830C3",
"B. c #7F8083",
"V. c #838383",
"C. c #858589",
"Z. c #8B8B8B",
"A. c #9B9B8D",
"S. c #888A9D",
"D. c #939393",
"F. c #9B9B9B",
"G. c #B0B183",
"H. c #8B8EA6",
"J. c #8F91A2",
"K. c #9798A1",
"L. c #9597B3",
"P. c #A3A3A3",
"I. c #ABABAB",
"U. c #B6B6AF",
"Y. c #B4B4B4",
"T. c #BBBBBB",
"R. c #ABACC3",
"E. c #B6B7CD",
"W. c #BDBFD5",
"Q. c #BFC1DA",
"!. c #C3C3C3",
"~. c #CBCBCB",
"^. c #C1C3DB",
"/. c #D3D3D3",
"(. c #DBDBDB",
"). c #E3E3E3",
"_. c #ECECEC",
"`. c #F3F3F3",
"'. c #FDFDFD",
/* pixels */
"  I.C 8 0 e Z.b P.C D.7 Z.D.- 0 V.7 V.F.0 F.A I.+ 9 Y.T.8 A N O $ o % B.x * F.P.e b b P.A ~.N v 0 0 N Y.z V.F.B.V.9 F.O A 7 ~.- ",
"A   D.7 0 Z.e T.Z.V.Z.C 7 Z.z 7 z z z F.8 Z * -   P./.- q (.  F.(.C.*   . - * Y.I.b * C.P.0 e 0 % C I.0 A Z.A B.z o x A V.- D.  ",
"C.I.O = F.Z e P.A 7 A - - 7 I.z F.q F.F.N z 8 * Z.I.b   '.o B.C.+ 9 I.Y.7 b * Z.).T.D.8 D.] C N C.P.* C e % - b $ _.o '.  D.7 - ",
"- V._.x q A V.V.!.!.C V.P.N 8 (.D.I.z F.z 8 8 Z.z D.7 D.B.$ D.. b A o Z `.9 D.F.P.% 0 V.A I.D.Z.A - * P.7 7 P.  `.0 0 z z (.  z ",
"~.% . P.0 B.x C.= e z . % C N 0 D.V.e C 8   T.z e Z e x 8 N A 8 . I.(.8 z ~.Z y D.z   0 b e 8 8 z z 8 V.o N * T.D.Z.Z.0 '.$ . C ",
"T.T.8 $ e 8 0 Z./.* e V.7 7 b A C 7 B.x . z F.- z 8 $ A Y.Z w N I.- + V.z V.C C.e F.z o 7 z N C Z.z V.z 0 A A e D.Z.A !.C 0 7 7 ",
"y Y.I.P.x 0 0 b T.V.z - F.- z !.7 z ~.. C D.* C b * C q b 0 A V.o z Y.C.D.C b 7 Z.* Y.D.8 - y 0 V.Z.e !.7 % Z.~.F.7 A z D.9 = V.",
"o   D.x x e b x V.(.z F.O V.C z Z P.).F.D.b ] Z.Z b Z P.V.F.!.y Z.8 % '.A !.b * D.z * z F.% 7 F.F.Z.b T.0 T.!.V.$ e Z N D.C.P.I.",
"P.% $ F.8 8 C V.$ Z.I.V.'.. b A I.P.P.Z.b N b $ C !.T.z I.Z Z.F.C b N . T.z /.N A w A 0 N V.  + N /.D.B.P.P.e A V.F.8 C.T.~.Y.b ",
"A * 0 8 I.V.- D.b - P.C.V._.* 7 z x $ P.A V.8 Z (.Z.- * ).8 C.V.Z.B.y C.% z F.T.N = * e k.a.K.= C.q B.N 7 e 8 x b * I.b * !.C 0 ",
"I.z e 7 + N P.8 C C N A N   A V.* 0 x 0 Y.N Z T.b z z A 8 D.N C.N A - - A b 7 ~.A C < =.w.N.5.l.b b N F.Z.7 * b * Z.C   0 D.$ V.",
"e 7 A 0 8   A V.A x /.y v (.y * 0 o $ _.B.V.F.V.Y.* N   Z.9 N z 0 N e 7 o q 7 7 F.* p.N.N.N.N.h.7 V.C x 8 w C b N P.+ % V.z A D.",
"Z.D.P.D.z e + I.D.A b (.y = Z.P.y   T.Z 8 q N `.+ D.0 7 Z.* e e T.0 y P.A A !.!.V.l w.N.N.N.N.*.o V.* B.D.% F.e F.0 = b V.A P.D.",
"Z.z F.z N D.~.!.P.e C 7 (.D.  - * $ Y.$ _.o `.% b 0 o x C 7 A D.0 !.= * 7 Z.8 x C.4.N.N.N.N.N.,.V.Z.  ).o C F.Z.* 8 e b F.C.A P.",
"8 x C F.B.% N Y.F.% 7 O   8 T.).. P.+ N V.- 7 0 A z C.b C F.A = - Z F.8 C z A F.v.N.N.N.n.N.N.y.Z.  /.Z.+ !.Y.  * - b b V.N C A ",
"Z 8 I.C Y.e 0 C T.V.$ e 0 o O . + !.0 F.$ P.- Z z Y.A 0 T.A 7 e z 7 C b 0 D.A z.0.N.N.N.N.N.N.>.+ C b * ~.P.7 o F.0 A 8 A ] = z ",
"A * Z.P.0 Z.P.A . 0 F./.0 Z.Z   $   % C 8 7 C F.y z 8 Y.B.P.z A e - e T.0 b V.:.N.N.N.N.N.N.M.>.X !.0 * z e C.b P.N V.e V.F.. N ",
"Z x b C C e % =   F./.% C /.. V.).I.%   . 7 7 Y.Y.B.% Z P.e C - % x I.e N V.B e.N.N.N.N.N.N.N.<.y   I.z 0 V.N !.D.Z.N e * I.e 0 ",
"Y.q D.F.b e 7 7 Z.Y.z   '.. V.C.o e D.T.7 z 7 ] ~.~.P.9 Z.C A Z B.F.- C e = -.N.N.N.N.N.N.N.N.4.z.F.O * Z.N 0 F.e w Z.7 * = I.N ",
"P.D.Z.Z N 8 e V.e F.- D.N % D.O b A . A `.0 D.F.P.% 7 B.B.I.D.] Z - - P.- 1 e.N.N.N.N.N.N.N.N.8.w F._.8 b P.C D.T.~.N V.T.z 0 ~.",
"A F.e y 8 $ D.z z N z 0 0 b Z.7 O F.`.7 z (.Z b D.C . 7 z N q 8 x z 7 Z.O ;.N.N.m.N.M.m.N.N.m.5.D.$ . D.w C.8 F.* q e   = x Z.e ",
"V.- Z.0 $ 0 D.8 b 7 % C Y.V.0 x F.8   A N z Z.A 0 F.C + - e b Z.Z.e A y 9 6 3.2.2.r.p.u.u.i.h d ] A.q - 9 8 e P.T.- Z Z * % B.B.",
"0 e !.* e Z.= C b = C z e C b Z.% % `.N Z.P.7 e I.+ F.C.q ; : t W ) G _ / } |  ...X.o.o.O.O.+.+.+.O.' F.8 = 0 z !.Z N * F.0 N P.",
"z Y.).F.D.z D.Z.A z D.D.Z.D.~.z C.b . '.D.F.Z.& ` J F H | o.O.@.$.$.&.&.%.%.%.$.%.%.$.$.$.$.$.$.$.$.W z V.e z b A.T.b P.. V.C V.",
"Y.F.D.Z.b Z.e $ Z T.!.q I.A D.P.C Z b @ A.L _ | O.@.%.&.#.@.@.#.$.$.$.$.$.$.$.$.$.$.#.$.$.#.$.#.$.$.D Z 0 9 C A o F.V.T./.o A Z.",
"A 0 % I.Z Z.8 C (.C.7 * (.8 A C.Z.m D / O.@.$.%.%.%.O.^ m j j m ^ +.%.$.$.$.$.$.$.$.$.$.$.$.$.$.$.$.D N F.Z.* P.b 7 I.V.D./.% * ",
"8 * A 0 I.z Z.Y.b y N B.8 D.z M U  .@.%.$.$.$.$.%.| k 8.n.N.n.n.6.k } %.$.$.$.$.$.#.$.$.$.$.$.#.$.$.I 7 . V.B.y z V.e C e $ z F.",
"x   % `.Z V.P.C.Y.* Z   Z.9 P ..%.%.$.%.$.$.$.%.| g n.N.q.7.9.e.n.n.g } $.#.$.$.$.$.$.$.$.#.$.$.$.$.I 0 *   V.C.A V.~.e 0 _.0 % ",
"b   Y.N 0 b y '.+ Z.e - c H #.$.$.$.$.$.$.$.$.@.x n.M.9.b.L.z.v.f.q.n.z +.%.$.$.$.#.$.$.$.$.$.%.%.#.{ b V.7 7 F.V.C.y '.e * D.V.",
"* - I.o `.$ ~.= N 8 , -.u #.$.#.$.$.#.$.$.#.%./ 1.N.8.H.^.W.J.k S.d.N.7.( %.$.$.$.$.#.+.+.+.+.@.+.O.! b y P.T.(.Z.w 0 0 !.Z.$ * ",
". P.$ z Z.8 % y v ;.0.q.i $.$.$.$.$.$.$.$.#.$.R q.q.h.W.Q.Q.^.R.J.b.0.q.T $.$.$.#.$.Y h h h h h h h 6 a.V o V.I.I.% 0     + /.(.",
"+ Y.z P.% F.= h 8.N.N.n.a $.$.$.$.$.$.$.$.$.$.p q.q.b.W.Q.Q.Q.^.^.L.8.n.m $.$.$.#.#.k m.m.m.m.m.m.m.m.M.s.z e x P.B.+ N z %   $ ",
"$ . o y 0 % b t.w.N.N.q.u $.$.$.$.$.$.$.$.$.%.a q.w.c.^.Q.Q.Q.Q.^.L.6.n.M $.$.$.#.$.R p.r.r.p.r.r.r.:.y.5 Y.C Z.o 0 P./.9 P.z . ",
"/.~.7   o * - P.l.9.q.n.p $.$.$.$.#.$.$.$.$.&.Q e.N.d.R.^.Q.Q.^.W.x.w.0.U %.$.$.$.$.@.X.X.X.X.X.X.X.> D.e 8 7 O   T.!.O D.F.  E.",
"= $ A !.e N 0 A /.P.k.<.p $.$.$.$.#.$.$.$.$.$. .:.M.w.h.R.Q.^.E.b.8.M.:. .$.$.$.#.$.$.$.$.$.$.$.$.$.~ P.e Z = 8 Z.P.z   '.. U.0 ",
"N F.= 0 _.e V.V.P.* = Z r X.$.$.$.$.$.$.$.$.$.$.R e.N.w.3.j.x.f.6.N.e.R $.#.$.$.$.$.$.$.$.$.$.$.$.$.I A c - e A e F.7 P.w @ C - ",
"% 0 `.e 0 ~.V.V.C.C   - b t / #.$.$.%.$.$.$.$.$.@.i 8.N.N.w.w.N.N.6.m O.$.$.$.$.$.$.$.$.$.#.$.$.$.#.P C % O I.0 B.z 9 8 0 C.Z 8 ",
"P.x o z A C V.q e V.D.  7 x 9 ~  .@.$.$.$.$.$.$.$.@.U u.8.0.0.4.u.W @.$.$.$.$.$.$.#.$.$.$.$.$.#.$.#.' 8 o z.C.e 7 7 0 Z.Y.b V.9 ",
"$ $ '.V.F.Z.8 b F.* Z.D.N % 0 8 A ! H O.@.%.%.$.$.$.%.O.( Q U ( o.$.$.$.$.#.#.$.$.$.$.$.$.$.$.$.$.#.[ % A A * n Z w 0 7 Z.e e P.",
"D.C.  (.P.D.F.O B.x 8 e C.7 $ D.C.F.C A.J _ | O.@.$.#.%.&.&.%.&.$.$.$.$.$.$.$.$.$.$.#.$.$.#.$.$.$.#.G.D.D.y F.C.b z P.F.V.Y.Y.b ",
"V.0 D.o F.A T.F.A y e z N Z.  $ 0 (.P.C F.A y m E ~ ^ } | X.O.+.@.@.#.$.%.%.%.&.$.$.$.$.$.$.$.#.@.@.L Z.C B.q o Z.!.U.7 T.A D.Z.",
"T.C 0 F.$ z B.T.e 0 0 w F.P.!.7 F.8 z C z 0 7 e A = D.N @ U.i : t > D K L J T T T E S a i n c r S : y Z.8 B.8 P.~.B.% 0 !.8 V.Z.",
"V.Z.$ - B.N 8 I.I.7 0 z 7 w !.I.0 Z C.F.A 8 - z - V.N   e Z.* C F.y f - # <.q.q.q.q.q.w.q.n.q.p.- % 0 C (.N D.C.e b C b C V.z D.",
"9 C.e 7 . e e % P.- V.- P.o o !.0 n N 0 0 z x b z I.o 7 x C C F.e 7 N e 7 2 w.N.n.N.N.n.N.n.n.*.z   8 `.z w P.T.Y.$ x o A 8 C 9 ",
"/.0 x Y.C b !.!.V.C.P.9 y `.D.7 $ x * b F.% D.z V.7 8 e D.x I.D.F.V.T.A Z.< 6.N.N.N.N.N.N.N.N.a.7   ).8 N b A ~.  P.0 7 D.* 7 B.",
"N P.7 % - F.7 N F.z e P.7   !.e N F.$ (.. N I.Z.% 8 9 b F.D.z D.Z.b V.V.0 P.v.N.N.N.N.N.N.N.N.6   e Z.$ ).o _.o V.7 % N V.= F.F.",
"7 e I.- N C V.F.(.e Z z b D.o N P.  I.F.$ ~.P.  * 7 C 8 P.z C b 8 z Z P.C % v 9.N.N.N.N.N.N.N.v.O T.. F.C b O V.V.C v x z P.e % ",
"C $ V.Z x A N F.z C V.= % N P.+   F.8 8 I.I.8 + D.x Z.= Z.C * N V.8 T.A Y.y v s q.N.N.N.N.N.w.3 + ~.- P.% B.8 N y Y.D.e !.b 7 x ",
"8 7 q !.8 A Z.N D.% V.O B.  ).$   P.C * 7 N C.x D.] Z.z N Z.% y C - Z.Z.- P.N C.>.N.N.N.N.N.n.3 %   $ q e * V.P.N 8 z I.A P.w A ",
"- v P.y Z C C C b $ B V.P.% T.  C   Z.b C Z e T.F.Z.Z z e Z B.- N A q P.z 8 7 + , 0.N.N.N.N.N.k.(.!.-     7 % I.Y.z * A P.N b 8 ",
"D.D.- C b % 8 C . '.  ).  Z.- % C./.o % Z.N A P.C - D.7 % - P.A F.0 D.I.e C - 0 Z g.w.N.N.N.n.6 . % V.(.7 x e P.!.~.D.z x D.z Z.",
"N - - D.- 8 T.  _.Z.0 y C '.  e 8 N `.b z Z.b A T.(.8 D.Y.z e !.D.I.C V.b - e Z e V.,.N.N.N.n.4 C I.% 0 '.0 Z.A I.o y f D.F.D.Z.",
"z B 7 Z.o N $ Y.Z.F.B.0 _.% . e `.% . F.7 V.e P.7 - A   7 C C 8 V.Z.z N % O P.0 V.y 1 <.w.n.1.< % b (.9 v ~.] C Z.A   7 e C 8 e ",
"D.y N B.e C e y F.Z.N (.b e 8 * C.~.e - z 7 e C ~.0 e V.7 $ V.C.A . I.0 o V.C.e * 8 y B.l.s N 0 A N   B.z A A Z 8 F.A o 8 e b I.",
"V.C.0 ~.0 % A ).D.- A N C.e - B.0 I.F.I.b $ 8 A T.Z.0 7 V.e z !.8 Z.Y.% A A * b A 0 - * Z.b e D.* % _.P.B.I.- z F.* Z.F.9 0 - Z ",
"D.F.A F.e T.!.A + x V.b D.D.F.I.o   F.e e A N b x ).N I.O C C e v Y.).D.Z.z F.V.z b I.F.A Y.Y.N Z.C . _.D.F.D.O A b 0 7 F.$ * P.",
"z Y.P.Z.D.D.8 Z.Z.F.9 D.F.~.T.b A 8 * C.z 0 e D.+ Z.I.Z.'.$ 0 Z.P.P.e D.B.z N o P.!.D.7 T.V.Z.Z.N N C   Y.z ).V.b z 0 b N Z.  O ",
"D.y b N 8 y e 0 Z % Z.C . ~.v - Z.* 7 0 F.D.- F.e 7 F.Z B.~.0 $ C 7 Z Z.q V.0 F.I.C.0 q Y.- V.Z.Z.C e F.* 0 V.I.z 0 e e D.T.T.e ",
"e A C P.B.% 8 e 7 V.C   z D.* C D.b A * % 0 Z.e D.N B.x Z.. 8 P.% = 0 N (.C F.C N z b 8 C.P.A b Z N * 7 Z.z * /.D.8 8 e * 8 T.T.",
"8 N C 0 7 C C y q I.o 7 x C C F.7 z N 0 0 o y Z.z N ~.b 9 _.V.% N   0 `.7 B.V.!.I.$ A + C % N z 0 A e = . b 0 7 D.e A e Y.  $ /.",
"$ b * A Z.7 F.z Z.7 0 e D.b I.D.P.V.I.V.N 0 - I.P.P.0 ).C $ 0 I.7 o !.e Z 0 D.~.o P.= 7 D.- 7 A Y.e b P.A V.!.I.A C.V.8 e '.Z.% ",
"C.F.  '.. 0 P.F.% 0 0 v F.D.b D.Z.0 Z.V.e A Y.).Z.% Z.+ !.Y.$ 0 o 7 F.. '.  ).+ C 8 % C C 7 F.Z.e Y.* = 7 V.8 N P.w C F.= O I.V.",
"P.  T.Z.$ !.!.  % 7 C 8 D.z N e 8 z x Z.Y.* w P.P.8 * o . + P.~.+ Y.. Z.A 0 @ B.N V.C b z I.e $ - b D.7 C z C.Y.!.9 ] e 8 D.  Z.",
"o N C.- !.Y.0 + F.B.P.0 F.Z.7 C B.z ~.V.D.N N z Y.V.* C z - o o % ~.7 F.  Y.= Z.C I.F.0 /.z 8 N 7 7 Z.N q F.C.C.x D.e 7 8 Z Y.  "
};
