/* XPM */
static char *rocket_down1712636834[] = {
/* columns rows colors chars-per-pixel */
"64 64 186 2 ",
"   c #010101",
".  c #0B0B0B",
"X  c #0E0E11",
"o  c #131313",
"O  c #1B1B1B",
"+  c #2B2B10",
"@  c #131420",
"#  c #232323",
"$  c #20202D",
"%  c #2C2C2C",
"&  c #3B3B2F",
"*  c #292935",
"=  c #343434",
"-  c #3C3C3C",
";  c #565623",
":  c #44443C",
">  c #4A4A3C",
",  c #5A5A39",
"<  c #7C7D32",
"1  c #3D3E49",
"2  c #3D3D53",
"3  c #1E2274",
"4  c #1E227C",
"5  c #292C68",
"6  c #3A3B6C",
"7  c #333579",
"8  c #3E4079",
"9  c #434344",
"0  c #46464C",
"q  c #4C4C4C",
"w  c #595A4C",
"e  c #4C4D5A",
"r  c #535353",
"t  c #5C5C5C",
"y  c #5F6149",
"u  c #656554",
"i  c #6C6C56",
"p  c #63635E",
"a  c #797A54",
"s  c #72755E",
"d  c #767A5E",
"f  c #7A7C5C",
"g  c #4A4A66",
"h  c #58596A",
"j  c #5C5E6D",
"k  c #4D4E73",
"l  c #44477B",
"z  c #4F537C",
"x  c #575B75",
"c  c #595D70",
"v  c #505478",
"b  c #5F606B",
"n  c #636363",
"m  c #666967",
"M  c #6D6F64",
"N  c #62646A",
"B  c #6B6B6B",
"V  c #727563",
"C  c #7B7D60",
"Z  c #777869",
"A  c #646476",
"S  c #747474",
"D  c #797975",
"F  c #7C7C7C",
"G  c #7D805C",
"H  c #84862E",
"J  c #868736",
"K  c #85863E",
"L  c #898B3C",
"P  c #969839",
"I  c #A7AA3A",
"U  c #B6B83E",
"Y  c #BFC13F",
"T  c #898B42",
"R  c #81834D",
"E  c #8F904A",
"W  c #92934C",
"Q  c #96994F",
"!  c #9A9C4F",
"~  c #868955",
"^  c #8B8E54",
"/  c #838759",
"(  c #959654",
")  c #989B50",
"_  c #A8AA49",
"`  c #B8BB43",
"'  c #B1B448",
"]  c #B6B949",
"[  c #A5A656",
"{  c #BDBF58",
"}  c #888964",
"|  c #9B9C61",
" . c #989868",
".. c #888977",
"X. c #C3C544",
"o. c #C7C943",
"O. c #CACD43",
"+. c #CACD4C",
"@. c #CED142",
"#. c #D2D543",
"$. c #D6D943",
"%. c #DADD43",
"&. c #DEE144",
"*. c #E2E545",
"=. c #E6E947",
"-. c #E8EB47",
";. c #EBEE48",
":. c #EDF047",
">. c #2D318F",
",. c #333684",
"<. c #383B85",
"1. c #222797",
"2. c #232996",
"3. c #242A9D",
"4. c #2C3193",
"5. c #2F369F",
"6. c #393D94",
"7. c #363B9A",
"8. c #292EA4",
"9. c #262DAE",
"0. c #292FAC",
"q. c #2D33A5",
"w. c #2A31AC",
"e. c #3339A5",
"r. c #3539AB",
"t. c #272EB4",
"y. c #282FB1",
"u. c #252DBC",
"i. c #282FBF",
"p. c #2930B1",
"a. c #3D428C",
"s. c #3B4198",
"d. c #424484",
"f. c #454B83",
"g. c #494E81",
"h. c #40458B",
"j. c #52548D",
"k. c #424494",
"l. c #41459D",
"z. c #464A9C",
"x. c #575A99",
"c. c #5F608C",
"v. c #5E619D",
"b. c #606185",
"n. c #797B8E",
"m. c #65679B",
"M. c #62659E",
"N. c #757699",
"B. c #4043A2",
"V. c #7578A2",
"C. c #252EC4",
"Z. c #232BC8",
"A. c #2730C6",
"S. c #2830C3",
"D. c #838383",
"F. c #8B8B8B",
"G. c #959687",
"H. c #8E8E91",
"J. c #888A9D",
"K. c #939393",
"L. c #9C9C9C",
"P. c #ADAE90",
"I. c #8A8CA8",
"U. c #8F91A2",
"Y. c #9494A5",
"T. c #9597B3",
"R. c #A3A3A3",
"E. c #A6A6AD",
"W. c #ABABAB",
"Q. c #B4B4B4",
"!. c #B7B7B8",
"~. c #BBBBBB",
"^. c #ABACC3",
"/. c #B6B7CD",
"(. c #BDBFD5",
"). c #BFC1D7",
"_. c #BFC1DA",
"`. c #C3C3C3",
"'. c #CBCBCB",
"]. c #C1C3DB",
"[. c #D3D3D3",
"{. c #DBDBDB",
"}. c gray89",
"|. c #ECECEC",
" X c #F2F2F2",
".X c #FDFDFD",
/* pixels */
"  W.S 0 q t H.B R.S K.9 F.K.- r D.9 D.L.r L.F W.O r !.!.q F S O # o % F m = K.R.t B B R.F '.B m r r B !.n D.L.D.D.r L.o D.0 '.- ",
"F   L.9 r H.t !.H.D.F.S 9 F.n 9 n p n L.q S = -   R.[.- t {.  K.{.F.-   . : = Q.R.B = F.R.r p r % S W.r S F.F D.n . n D.D.= K.  ",
"F.E.o - R.S t R.D 0 F - - 9 W.n L.t L.R.B p q = H.W.B   .XX F D.O q W.Q.9 B = F.}.~.K.9 K.D.S B F.R.- S n % 9 B # |.o .X  H.: - ",
"- ..|.m r F D.D.`.`.S D.R.B q {.K.W.n L.B q q F.p F.0 K.D.# K.X B F o F  Xr K.L.R.= r D.F W.K.F.F - = L.: 9 R.   Xr r n m {.  n ",
"'.% . R.r D.m F.= t B . % S B w L.D.t B q   ~.p p S t n q B D.0 X W.{.q n `.F p H.B   r m t q q n n 9 F.o B = !.K.F.H.r .X# . S ",
"~.!.0 # p q r F.{.= t F 9 0 B F B 0 F B . n L.- n q % F !.S t B W.- O D.m D.S F.t K.n o 9 n S S F.n F.n r D F r K.H.S `.S r 9 9 ",
"n Q.W.R.m q r B !.F n - L.- m `.9 n '.X S K.= S B = S r B t S D.X p !.F.K.S B 1 H.- Q.K.q : n r D.F.t `.9 = H.[.L.9 D m H.r = D.",
"X   K.m n p B m D.{.B L.o D.S n D R.}.L.H.B D.H.D B D R.F.K.'.t H.q % .XF ~.B = K.N = n K.% 9 K.L.F.B !.r !.~.D.O p D S K.F.R.W.",
"R.= # L.q q S D.# F.W.F .XX B F W.L.R.D.B B B # S `.~.p W.D K.K.B B B X ~.p [.B F t F r S D.  O B [.K.D.R.R.n F D.L.q D.!.[.!.m ",
"S = r q W.D.- K.B - R.F.D.|.= - m m % R.F F.0 D {.F.- - }.q D.D.F.D.p F.% n L.!.B - = m L.L.`.- H.r D.B 9 t 0 m B = E.B = `.S r ",
"W.n t 9 O B R.q D S B F S   F D.= r m r !.S D ~.B n n F q H.S D.B D - - D.B - '.F S 9 r - m '.R.B B S L.F.- = B = F.S . r K.# D.",
"t 0 F r q   D F.F B [.n B {.n = r X # |.F D.L.D.Q.= B   H.r B g >.k t 9 X t 0 9 L.= D.t H.  % ~.9 D.S n q t S m S R.O # D.m D K.",
"F.K.R.H.m t O R.K.F B {.t - F.R.p   ~.D q t B  XO H.r 9 F.= r <.S.>.t R.D F `.`.D.F.R.= D .XF : X D.= D.H.% L.t K.r = B D.D R.K.",
"F.n L.n B H.'.'.R.t D 9 {.K.  - = # Q.# |.o [.< E T H E W J ^ l Z.a.< J L ( T W ( K Z D.= . {.9 F.H.  }.o D R.F.= 0 n B L.F.S R.",
"9 m D L.D.= B Q.L.% 9 O   q !.}.X R.# B ..- , $.-.-.=.=.-.-.&.z Z.h.#.=.=.=.=.=.;.&.f B F F   F.L.  [.F.o `.W.  = : B S F.S F F ",
"F q W.S W.t r S `.F # t q o O X @ !.0 H.$ H., %.-.-.-.-.-.-.&.z Z.h.#.;.;.=.;.=.;.*.G 9 # S E.. o S n - [.R.q O K.r D 0 F F = n ",
"F = F.L.r H.R.D . r L.U.,.k.6.1.2.3.8.8.8.9.k *.-.-.-.-.-.-.&.z Z.h.#.-.=.-.-.=.-.*.s 4 d.4 I.3 3 N.7 5 l q D.B L.S D.t D.K.. B ",
"S B B S D t = -   R.E.9.S.C.S.S.S.S.S.S.S.Z.z &.-.-.=.-.=.;.&.z Z.a.#.-.-.-.-.-.-.-.M C.S.S.S.S.i.S.S.S.S.5.N `.K.F.B n = W.n r ",
"!.t L.L.B t - 9 F.W.8 C.S.S.S.S.S.S.S.S.S.S.l %.=.=.=.-.-.-.&.z Z.h.#.-.-.-.-.-.-.=.V C.S.S.S.S.S.S.S.S.S.S.6 L.t r H.9 = = W.S ",
"L.K.F.S S 9 t D.t L.5 i.S.S.S.S.S.S.S.S.S.S.f.%.-.-.-.-.-.-.&.z C.6.#.-.=.-.-.-.=.-.s C.S.S.S.S.S.S.S.S.S.i.k K.`.'.B D.~.n r '.",
"F L.n t q # K.n n B t >.S.S.S.S.S.S.S.S.S.S.h.$.-.-.-.-.-.-.&.v Z.<.$.-.-.-.-.-.-.-.f i.S.S.S.S.S.S.S.S.S.7.1 L.= r t   - n F.t ",
"D.- F.r # r K.q n q = N x.i.S.S.S.S.S.S.S.Z.h.$.-.-.-.-.-.-.-.Q j ^ =.-.=.-.-.-.-.-.f u.S.S.S.S.S.S.S.S.4.1 n R.`.- D D = = D.F ",
"r t `.= t F.- S B - S n r k 0.S.S.S.S.S.S.A.h.@.-.-.-.-.-.-.-.-.=.=.-.-.-.-.-.-.-.;./ u.S.S.S.S.S.S.y.j.0 = r n `.S S = L.r B R.",
"n !.}.L.K.n K.F.D n K.K.D.K.R.<.y.S.S.S.S.S.6.@.-.-.-.-.-.-.-.-.=.-.-.-.-.=.-.-.-.-./ u.S.S.S.S.i.2.A t D.t n B K.`.B R.. D.S D.",
"!.L.K.F.B F.n # S ~.`.r W.F K.L.j <.p.S.S.A.6.O.;.-.-.-.-.-.-.-.-.-.-.-.-.-.-.-.-.-.~ u.S.S.S.q.b.@ r S r r S D o L.F ~.[.o D F.",
"S r % W.D F.q S {.D.9 - {.q F F.K.S 2 j.0.S.7.o.;.-.=.-.-.-.-.-.-.=.-.-.=.-.-.=.-.;.~ u.S.r.d.1 m 0 - S L.F.= R.B - W.D.K.[.% = ",
"q = F r W.n F.!.m p S n.q K.n D.m F - - b d.7 X.;.-.=.;.-.-.:.-.-.-.;.-.-.-.-.-.=.;.R 1.7 D.# D W.9 B 9 . F.F n m D.t S h # n R.",
"m   %  XD D.R.D.Q.= D   H.r n n 9 F m -   B 0 U ;.;.=.=.-.*.] ~ V d ! O.-.-.-.=.=.=.J * D n F L.q r B r =   D.F.F D.'.n t |.q % ",
"B   !.B r B t .XO H.t 9 D.= r n `.r n W.D.S ~.{ -.-.=.;.X.N q.u.C.C.t.a.^ %.;.-.=.=.K S D.S L.K.F.K.!.B D.9 9 L.D.F.n  Xt = K.F ",
"= - W.o |.% '.- B q o n S q D L.t ~.- * 9 D.q _ -.-.;.X.l C.S.y.0.0.u.C.9.s *.-.-.-.T t W.F.B K.K.t L.B n R.!.{.F.t r r `.F.# = ",
". R.# m F.9 = p F t K.m B L.D - = S W.- D B F [ -.-.%.c C.i.l.V.T.T.M.w.A.w.( -.=.=.R t L.B B S 9 F r R.K.X D.W.E.% r     O [.{.",
"O !.n L.% L.- D.n W.F.r ~.D.- n m % D S S F D | =.:._ 0.C.z.J.U.].].).V.p.A.l #.-.*.} - H.D - D S t Q.S W.m t A P.F O S p =   # ",
"# . o n t % D R.S q p W.F L.B D n 9 r Q.r S F.R =.-.M C.y.N.b ^._._.]./.z.C.w.' ;.*.f r F K.% n B 9 K.H.9 Q.B F.o r R.[.q R.n X ",
"[.'.0   X = - W.W.F.o F.R.q H.% o B !.m S F F f %.*.x C.e.n.U.]._._.(.].M.i.t.! ;.%.i D q L.n 9 B F t L.n q 9 O   `.`.O K.R.  ~.",
"= % D `.t B r F [.!.R.r B K.B F F.L.- S r - r i $.*.x C.q.T._._._._._.].v.C.t.) :.#.Z q - % W.F K.r H.R.t S - q F.E.n   .X. W.t ",
"S K.- r |.t D.D.L.- - F.F W.L.D.F.: = K.- q Q.+ +.;.M C.t.V.].]._._.].^.s.C.q.' :.+.p S W.m r [.K.Q.S F B - t D t K.9 R.t O S : ",
"% r  Xt r '.D.D.F.S   - B n n 9 t p r K.O n # W.] :._ 0.C.e.I.(.].].^.x.u.C.g.$.-.` p   - B F 0 K.F.h S % O W.r F n q q r F.S q ",
"R.m o p F D D.t t D.H.  0 m r K.F.h D.B t S B t [ ;.%.j i.S.q.x.V.m.z.u.A.0.Q ;.-.I B F.9 % F ..F . P.q o F D.t q q r F.W.B D.r ",
"% O .XD.L.F.q B L.= F.K.B % r q H.K.q W.q - F.[. .=.;.X.l C.S.C.u.i.C.C.9.d *.=.-.Q t - L.9 n.W.q F.W.= F F = B S r r 9 F.t t E.",
"H.F.  {.R.K.L.o D.m 0 p F.9 # K.F.L.F ~.r ~.Q.F ; %.;.;.o.m 5.u.C.u.y.a.^ &.;.-.*.P.B E.. D ..p B ~.{.K.K.n L.D.B m R.L.F Q.Q.B ",
"F t K.o L.D `.K.D p h n S F.  # r {.L.S L.F B F D O.-.-.-.*.` ^ d f ! @.-.;.=.-.%...L.H. Xo B n.W.F.D.F.S D.t X H.`.W.q !.F K.H.",
"!.S r K.# m D.~.t r r r L.L.`.: L.9 n S n t 0 t S I :.-.-.-.-.-.=.;.;.;.-.-.-.;.o.: R.F F.[.- - S r B F.q F r R.'.F = r ~.q D.F.",
"..F.# - F B q W.E.q q n 9 t `.W.r S D.L.F q - p 1 ^ -.=.-.-.-.-.=.-.-.=.-.-.-.;.' S S S D   D.F - % r B {.B K.F.p m S B B D.m K.",
"e F.t 9 . t n % R.: D.9 W.. o `.t M B t r n n B p G.$.-.-.-.-.-.-.-.-.-.=.-.-.=.T m `.S m }.m - n   q  Xm t R.~.!.# n o F r S q ",
"[.r B Q.D B `.'.D.D.R.r n |.K.: # B = B L.# L.n F.9 U -.=.-.-.=.-.-.-.-.-.=.;.$...K.m |.r % F K.9   }.q B B F '.  R.r 0 K.= 9 D.",
"B R.0 % - L.0 B L.n t L.0   `.t S K.# }.. S R.H.# q K -.-.-.-.-.=.-.-.=.-.-.;.{ S 9 n # {.K.# t   t F.# }.o |.o D.: % B F.= L.L.",
"9 t W.= S S D.K.{.t S p B H.O S R.  W.L.% '.W.  = : M @.;.-.=.-.-.-.=.-.-.=.=. .R.- r o   % !.'.O ~.. L.B B o D.D.S B B n R.t % ",
"S # F.S m D S L.m B F.- % S L.o . K.q q R.R.q O H.B D.P =.-.-.-.-.-.-.-.-.;.O.u R.D.O S t # O . O '.: L.= D.q S n W.K.t `.n 9 B ",
"q 0 t `.q F F.B K.* F.o F   }.#   L.D - 9 B F.m K.F F.u #.-.-.-.=.=.-.-.-.-.W H.. t R.'.0 R.n . =   # r t = D.R.S 0 n W.F R.t D ",
"- n R.t S S S D B # B D.R.= ~.  S   H.m S D t ~.L.H.S n T *.-.-.=.-.-.-.-.Y > # . ~.!.X L.W.  W.{.`.9     9 = R.!.n = F R.S B q ",
"H.K.: B B # r S . .X  }.. F.- % D.[.O # F.S S R.S : K.0 & U -.-.-.-.-.-.#.a - q F W.S   .X  Q.t . % F }.9 n t W.`.'.K.m B K.n F.",
"S - 9 K.: q !.  |.F.t t S  X  t q S  XS n H.m F !.{.q H.W.w a C d d C C y = t F t H.- L.p # B = D W.% q .Xr F.F R.o n t K.L.K.F.",
"n B 0 H.X B # W.F.L.F r |.%   p |.% . K.: D.n R.9 - D.  0 B <.C.i.C.C.3.* o W.r F n q q t K.D - % m {.r n '.D.B F.D   9 t S q t ",
"K.p B D.p S t n L.F.S {.B t q = D.'.n - n 9 t B '.r t D.9 O A 9.S.S.i.6 o D...r - 9 p H.R.n D.r F S   D.n F F D q L.D X q t m W.",
"D.F.q '.r % D.}.K.- D S D.t 9 F t W.L.W.B # q D.~.F.q 9 D.p t m.S.S.B.* F n.= B D r : = F.B p H.= % |.L.D.W.- m L.= F.R.r r - D ",
"K.L.F L.t !.`.D O m F.B H.K.L.W.o   L.r n D B B B }.B W.O D S e 0.i.Y.H.F.p L.F.n m E.L.D Q.!.B H.S . |.H.L.K.O n.B r 9 L.# = R.",
"p Q.R.F.K.K.q F.F.L.q K.L.'.!.B F q - F.m r t H.O F.W.F..X# r F.c.k.r K.D.n B X L.`.K.q Q.D.F.F.S S S   !.n }.D.M n r B S H.  o ",
"H.n m S r t p q S = F.S o '.n : F.= - q L.H.- L.t 9 L.S D.'.q # B 9 D F.t D.r R.W.F.r t Q.- D.H.F.S t K.= r D.W.p t r t K.~.~.t ",
"n F S R.F % q p - F.S   p H.= D K.B D = % r H.t H.B D.m F.. q R.% - r S {.D L.S S n B q F.R.D m S S = : F.n - [.H.q q n % q ~.~.",
"q B S r 9 S S n t E.X 9 B S S L.9 B B q r o p F.n S [.B q |.F.# B   r |.9 F D.`.W.# F o S % B B r D t - X m r 9 K.t D t Q.  % [.",
"# B = F K.- L.n F.0 r t K.B W.K.R.D.W.D.B q - W.R.R.q }.S # r W.0 o `.t S r F.'.X R.- 9 K.- 9 S !.t m R.F D.`.W.F F.D.q p .XF.= ",
"F.K.  .XX q R.L.% r r m L.K.B K.F.t F.F.n F !.}.H.% H.O `.!.# r o : L.X .X. }.O S r % S S q L.F.t Q.= = 9 F.9 B R.r S L.= O W.D.",
"R.  ~.F.# ~.`.  % : D q K.p B t 9 n B F.Q.= t R.L.q = X . O R.'.O Q.. F.F t # n.S D.S m t Q.p # - B K.q S n D.Q.`.r D.t q H.  D.",
"o B F.- '.!.q # L.F R.r Y.H.9 S D.n '.D.K.B S n !.D.= D p : o X % '.9 L.  W.& F.S W.K.r [.n q B 0 9 F.B r L.D.F.m K.p 0 9 F Q.  "
};
