/* XPM */
static char *rocket_up1712636835[] = {
/* columns rows colors chars-per-pixel */
"64 64 178 2 ",
"   c #010101",
".  c #0C0C0C",
"X  c #0E0F14",
"o  c #141414",
"O  c #1A1A1A",
"+  c #060724",
"@  c #1C1C29",
"#  c #232323",
"$  c #2C2C2C",
"%  c #2F2F30",
"&  c #343434",
"*  c #3A3A38",
"=  c #3C3C3C",
"-  c #4E4F2F",
";  c #575827",
":  c #47473C",
">  c #56573A",
",  c #636433",
"<  c #7A7B33",
"1  c #3F3F45",
"2  c #272958",
"3  c #383950",
"4  c #1E226E",
"5  c #1E2274",
"6  c #282A6B",
"7  c #33356C",
"8  c #2F327D",
"9  c #35387B",
"0  c #444444",
"q  c #4C4C4C",
"w  c #5D5E44",
"e  c #4A4A56",
"r  c #535353",
"t  c #545559",
"y  c #5C5C5C",
"u  c #7C7C4E",
"i  c #656657",
"p  c #72755E",
"a  c #777A5E",
"s  c #7B7D5D",
"d  c #57596B",
"f  c #464975",
"g  c #4B4C72",
"h  c #43467D",
"j  c #4F537C",
"k  c #545677",
"l  c #575B75",
"z  c #595D70",
"x  c #5F606B",
"c  c #636363",
"v  c #696C67",
"b  c #61636C",
"n  c #6B6B6B",
"m  c #6F7264",
"M  c #727563",
"N  c #7D7E63",
"B  c #6E6E77",
"V  c #65667A",
"C  c #747474",
"Z  c #7C7C71",
"A  c #73737B",
"S  c #7C7C7C",
"D  c #7D805C",
"F  c #868736",
"G  c #85863D",
"H  c #898B3B",
"J  c #989A3E",
"K  c #A5A83A",
"L  c #B6B83D",
"P  c #8B8C4D",
"I  c #91924F",
"U  c #868955",
"Y  c #8B8D53",
"T  c #858759",
"R  c #969850",
"E  c #999B52",
"W  c #98995C",
"Q  c #9FA148",
"!  c #ABAD46",
"~  c #A5A74B",
"^  c #B5B844",
"/  c #B1B448",
"(  c #A3A555",
")  c #BCBF57",
"_  c #8F9064",
"`  c #9E9E6A",
"'  c #888977",
"]  c #A2A369",
"[  c #C2C544",
"{  c #C7C943",
"}  c #CACD43",
"|  c #CED143",
" . c #D2D543",
".. c #D6D943",
"X. c #DADD43",
"o. c #DEE144",
"O. c #E2E545",
"+. c #E6E947",
"@. c #E8EB47",
"#. c #EBEE48",
"$. c #EDF047",
"%. c #292D8C",
"&. c #2D3287",
"*. c #373989",
"=. c #393D8C",
"-. c #222995",
";. c #252A9C",
":. c #282D9C",
">. c #2F3393",
",. c #2E349F",
"<. c #353A9A",
"1. c #272EA7",
"2. c #262DAE",
"3. c #282EAA",
"4. c #2D33A5",
"5. c #2A31AC",
"6. c #3339A5",
"7. c #272EB4",
"8. c #282EB1",
"9. c #252DBC",
"0. c #282FBF",
"q. c #2930B1",
"w. c #3E438C",
"e. c #3B4198",
"r. c #454B83",
"t. c #494E81",
"y. c #42458B",
"u. c #4A4C8A",
"i. c #575887",
"p. c #53558D",
"a. c #41459D",
"s. c #464A9C",
"d. c #4F5198",
"f. c #535493",
"g. c #585B97",
"h. c #5F608C",
"j. c #5E619D",
"k. c #606185",
"l. c #7B7C88",
"z. c #62659E",
"x. c #686B9F",
"c. c #757798",
"v. c #595BA1",
"b. c #7376A3",
"n. c #777AA2",
"m. c #252EC4",
"M. c #232BC8",
"N. c #2730C6",
"B. c #2830C3",
"V. c #838383",
"C. c #888887",
"Z. c #8B8B8B",
"A. c #939393",
"S. c #9B9B9B",
"D. c #ACAD8F",
"F. c #A2A293",
"G. c #8B8EA6",
"H. c #8F91A2",
"J. c #9597B3",
"K. c #A3A3A3",
"L. c #ABABAB",
"P. c #B4B4B4",
"I. c #BBBBBB",
"U. c #ABACC3",
"Y. c #B6B7CD",
"T. c #BDBFD5",
"R. c #BFC1D7",
"E. c #BFC1DA",
"W. c #C3C3C3",
"Q. c #C7C7C9",
"!. c #CBCBCB",
"~. c #C1C3DB",
"^. c #D3D3D3",
"/. c #DBDBDB",
"(. c #E3E3E3",
"). c #EDEDED",
"_. c #F3F3F3",
"`. c #FDFDFD",
/* pixels */
"  L.C q q y A.n S.C A.0 C.A.1 r V.0 C.S.r K.S L.O q P.I.q S C O # o $ S n & A.K.y n n K.S !.C v r r n I.c V.S.V.C.q S.o V.0 !.1 ",
"S   A.0 t Z.y I.Z.C.C.C 1 Z.c 0 c y c S.q C & =   K./.= y /.  A./.Z.&   . 0 & P.L.n & C.L.r y q $ C K.r C C.S V.c X v S S = A.  ",
"C.L.o * F.A y K.S 0 S 1 = 0 L.c S.y S.S.n y q * A.L.n   `.X S C.O q L.P.0 n * C./.I.Z.q A.S C C C.K.* C c % = n $ ).X `.  A.= = ",
"= V.).n t S V.V.Q.W.C ' K.n q /.A.L.c S.c r q Z.y Z.0 A.V.# A.o n S o S _.r A.S.K.& r V.S L.A.Z.S = & K.= 0 L.  _.r r i c /.  c ",
"Q.$ . K.r V.n C.& y b . $ C C r A.V.d C q   I.y y C r n q n S 0 . L./.q c W.S c A.c   r n y q q c c q V.o n & I.A.Z.A.r `.# X C ",
"I.I.0 $ y q r Z./.& y V.0 0 v S C 0 S v . c K.1 c r $ S P.C y n L.1 O V.c V.C C.y S.c o 0 c C C Z.c C.c r S S r A.A.C W.C r = 0 ",
"c P.L.K.n r r n P.V.c * A.= c W.: c !.o C A.% C n & C r n y n S o y P.C.A.C n 0 A.& P.A.q = c r V.C.c W.0 % A.!.S.: S c A.q = V.",
"o   Z.n c y n c V./.v S.O C.C c C K.(.S.A.c V.A.S n C K.C.Z.d.9 Z.r $ `.S I.n & A.c & c A.$ 0 A.S.C.b I.r I.I.V.O y C C A.Z.K.L.",
"K.% # A.q q C V.# C.L.V.`.. n S L.K.K.C.n n n # C Q.I.y L.k 0.5.d v n X I.c ^.C S y Z r n C.  O n ^.A.V.K.K.y S V.S.q V.I.^.P.n ",
"C & y q L.V.= A.n = K.C.V.).& 1 c v # K.S C.0 C /.Z.= * Q.:.N.B.u.S i C.$ c S.I.n * & c K.S.W.= C.y V.n 0 y q n C & L.v % W.C q ",
"L.c y 0 o C K.q C C n S n   S V.& r c q P.C C I.n c c S 7 9.B.N.7.b = = S n 1 !.S A 0 r * c ^.K.n n C S.Z.= & b % Z.C   y A.$ V.",
"y 0 S r q   S C.S n ^.c v /.c & t o # ).V.C.S.V.P.* n + 4.9.9.9.m.*.r 1 o y 0 1 S.& V.y A.  # W.0 V.Z c q y C n C K.O $ V.c A A.",
"A.A.K.A.c y O K.A.S n /.c = Z.K.c   I.S q y C _.o A.q > a a a a s p w K.Z S W.W.V.Z.L.% C `.S = o V.% l.A.$ S.y A.r & C V.S K.A.",
"Z.c S.c n A.^.W.K.y Z 1 ^.A.  1 & # P.# ).o ).$ n r ;  .@.+.@.@.@.@.L * 1 Z.r n S.r V.C.% . /.0 Z.A.  (.o Z S.Z.& q y n S.V.C K.",
"q c C S.V.% C P.A.% 0 O   q I./.. K.# n V.= 0 r S i { @.@.+.@.@.@.@.O.H n c S S.^.y C n S S   Z.S.  ^.C.o W.P.  & 1 n n V.C S S ",
"C q L.C P.y q C I.V.# y r o O . O Q.q S.# K.* S y ] +.@.@.@.@.@.@.@.@. .w A.V.A.c V.C 0 # C L.. o C n & !.K.q o A.y S q S S & c ",
"S & A.S.r Z.K.S . r S.^.r Z.A   #   $ C q 0 C S.y | @.@.@.@.@.@.@.+.@.@.J v Z.n A.o L.o C X _.o   W.r & c y C.n K.n V.y V.A.. n ",
"C n n C C y & =   S.^.% C ^.. C./.L.$   . 0 0 P.` @.@.@.@.@.@.@.@.@.@.@.} Z C.A B * c Z C.0 K.o n   L.c r V.n W.A.Z.n c & L.c r ",
"P.y A.S.n y = 0 C.P.c   `.. V.C.O y A.I.1 i 0 C ) @.@.@.+.@.@.@.@.@.@.@.+.F r n   `.  (.# C.O & A.S.o & Z.C r K.y r A.0 & = L.C ",
"K.A.Z.C C 0 y V.c S.* A.n $ A.o n S . S _.y A.' ..@.@.@.@.@.+.@.@.+.@.@.@.L S.  `.n y y C /.  c y S.).q c K.C A.W.!.n V.I.c r W.",
"S S.y c q # A.c c n c r r n Z.0 O S.).q c /.C P +.@.@.@.@.@.@.@.@.@.@.@.@...- I.S.A.C n !.% o c L.# X A.r C.0 S.= r y   = c Z.y ",
"V.= Z.r # r A.q n 0 % C I.S y n S.q   S C c C.! @.@.@.@.@.@.+.+.@.+.+.@.@.+.P i V.K.C /.S c = & P.P.c = r q y L.I.= C S % & V.S ",
"r y I.& y Z.= C v = C c y n n C.$ % _.n Z.L.: { @.@.@.@.@.@.@.@.#.#.+.+.@.@./ Q.A.r S q A.1 q Z.v L.K.S.q * t c W.C C & A.r C K.",
"c P.(.K.A.c A.C.S c A.A.Z.A.W.c C.n . `.A.A.' ..@.@.@.@.} Q s a Y ^ +.#.@.@.} C o c S Z.V.A.K.S.  . V.c ' y c b A.I.n K.. V.C V.",
"P.S.A.Z.n Z.y # S I.W.r L.S A.K.C C n o P.n D.+.@.@.o.Y w.8.9.m.9.,.v { @.@.o.T V.S.q S.K.^.I.C A.o r C r r C S o K.V.I./.X C Z.",
"S r % L.C Z.q C /.V.0 = /.r S C.A.C q S.$ y E @.@.O.a 2.N.N.9.9.9.B.m.h [ @.@.u S % S.C # Q.C 0 n q = C S.C.& K.n = L.V.A.^.$ & ",
"q & S r L.c Z.P.n c C S 0 A.c V.c S = = S n K #.@.R 3.N.0.a.x.b.g.5.B.m.x X.+.~ = A.v . q A.$ S L.0 n 0 . C.S c c V.y C y # c K.",
"c   % ).S V.K.V.P.& C   A.r c c 0 V.n *   c L #...t.N.7.g.U.~.~.T.G.6.B.4.~ @.^ c K.# & S c S S.q r n t %   V.C.S C.!.y r ).q $ ",
"n . P.C q n y `.O Z.y 1 C.& r c W.r c L.V.v } $./ 4.m.a.U.E.E.E.~.~.b.9.M.m @.{ S q : C C.C K.A.C.A.I.n V.0 0 S.V.C.y `.y & A.' ",
"& & K.o ).$ ^.= n q O c C 0 C K.y I.= % 0 Z  .$.E 7.9.j.E.E.E.E.R.E.J.5.M.l O...- 0 y y L.V.n A.A.y S.n y L.I./.Z.y r r W.Z.# & ",
". L.# c A.q % y S i A.b n K.C = & C L.= C i X.$.E 7.m.z.E.E.E.E.~.H.l.6.m.l O.o., 0 v y S.n n C 0 S t K.A.. C.L.L.$ r     @ ^./.",
"O P.c K.# S.= V.c L.C.r I.V.& c c $ S n C N O.#./ 4.m.s.Y.E.E.~.L.x c.5.m.p @.O._ c Z.= A.C * S C y L.C L.c y n K.S O C y %   # ",
"# . o c r % C K.C q y L.S S.n C c 0 y P.r D O.@...r.m.q.n.T.~.~.G.G.s.m.4.~ @.@.W Z.S y S A.$ c n 0 A.A.0 P.C A.o r K.^.q K.c . ",
"^.!.0   o & = L.P.Z.o Z.K.q A.% o v P.c C U +.@.@.R 5.m.5.j.J.J.n.e.9.m.l X.@.@.( A.n C q S.i 0 n l.r S.y q 1 o   I.W.O A.K.  I.",
"& # S W.y n r S ^.I.L.r B A.n S C.K.= C r F O.@.@.O.M q.M.9.5.4.9.m.9.h [ @.@.@.! q V.q * $ L.S S.q A.K.y S = q Z.L.c   `.. P.t ",
"C S.* r ).y V.C.K.% * C.C L.S.V.Z.= % A.* G +.@.+.@.o.U w.7.9.m.9.6.b { @.@.@.$.) P.n C L.c t ^.A.P.C S n = y A y A.0 K.y # C = ",
"$ y _.y y !.V.V.C.C   = n c c 0 y c r A.@ G +.@.@.@.@.@.} E s M T ^ o.@.@.@.@.@.L q c   * v V.q A.C.c C $ O L.t V.c q q r C.C q ",
"K.c o y S C V.r y V.A.  0 c r A.C.y B h %.D @.@.@.+.@.@.@.@.@.+.$.#.@.@.@.@.@.@.[ 8 r.A = $ S V.S . K.q o S ' t 0 0 r A.L.n V.r ",
"$ O `.V.A.Z.q n S.& Z.A.C % r q l.i.1.B.9.U #.+.@.@.@.@.+.@.+.@.@.@.@.@.@.@.@.@.{ <.m.2.f.3 S L.q C.P.$ S S & n C y q 0 C.y y L.",
"A.C.  /.L.A.S.o V.c q y C.0 # k.4.B.B.B.9.U #.@.@.+.@.+.@.@.@.@.@.@.@.@.@.@.@.#.| <.B.B.m.8.y.e n P./.A.A.c S.C.c c L.S.S P.P.v ",
"V.r A.o S.S I.S.S y y c n V -.B.B.B.B.B.9.T +.@.+.@.@.@.@.@.+.@.@.@.@.@.@.@.@.@.| e.N.N.B.B.B.8.g.A ' Z.S S t o A.W.L.q I.S A.Z.",
"I.C r S.# c V.I.y t r e p.7.B.B.B.B.B.B.9.T #.@.@.@.@.+.+.@.+.+.@.@.@.@.@.@.@.@.| w.N.B.B.B.B.B.0.1.f V.q V.q K.!.S % r I.q V.Z.",
"V.C.# = S n q L.L.0 e >.B.B.B.B.B.B.B.B.9.s #.+.@.@.@.@.@.+.U z E @.@.@.@.@.@.@...y.m.B.B.B.B.B.B.B.0.*.I.C A.C.y n A n C V.v A.",
"q Z.y 0 . y c $ K.* <.B.B.B.B.B.B.0.B.B.9.s #.+.+.@.@.+.@. .w.M.j o.@.@.@.@.@.@...y.m.B.B.B.B.B.B.B.B.B.>.e K.I.P.# v o S r C q ",
"^.r n P.A n I.!.V.l B.B.B.B.B.B.B.B.B.B.9.M @.@.@.@.@.@.@. .w.M.j o.@.@.@.@.@.@...r.m.N.B.B.B.B.B.B.B.B.9.g Z !.  K.r 0 A.& 0 V.",
"n L.0 $ = S.0 C S.f 0.B.B.B.B.B.B.B.B.B.9.M @.@.@.@.@.@.@. .w.M.j o.@.@.+.@.@.@.o.t.m.B.B.B.B.B.B.B.B.B.B.4 (.O V.0 % n V.& S.S.",
": y L.* C C V.A./.e ,.B.B.B.B.B.B.B.B.0.m.m +.@.@.@.@.@.@. .w.M.j o.@.@.@.+.@.@.o.j M.m.N.m.N.N.B.m.B.B.8.d o V.V.C n v c K.y $ ",
"C # V.C c S C S.c C B 6 6 f h.5 5 i.8 &.p.p O.@.@.@.@.@.#. .y.M.j o.@.@.@.@.@.@.o.d 2.1.4.;.;.-.-.v.%.f.2 S q C c L.A.y W.n 0 c ",
"q 1 y W.q S Z.n A.$ C.O S   (.#   S.C & = u O.@.+.@.@.+.@. .w.M.j O.#.#.@.@.@.@.X.w A.P.1 A.y X %   # r y & V.K.C 0 c L.S K.r S ",
"= v L.y C S C S n # n C.K.% I.  A   A.v C D o.+.+.@.@.+.@. .w.M.j X.@.+.+.+.@.@...F.P.X S.P.  L./.W.1     1 % L.P.v * S K.C n q ",
"A.A.= n n # q C . `.  /.. Z.= $ C.!.o $ A.i P ` I H W H F < =.N.h G W ] P I F H P A.C   _.  L.y . $ S (.0 c y K.W.W.A.c n A.c Z.",
"n = 1 A.= q I.  ).C.r c C _.  y q C _.n y A.n S P./.q Z.P.y >.N.u.L.C S c * y S y A.* K.y $ C % C L.$ r `.t C.S L.o c y A.S.S.C.",
"c n q A.X n # P.A.A.S y ).%   y ).$ . A.= V.c K.1 = V.  0 C g &.V C.y C $ o L.r V.c q q y A.C 1 $ c /.q v !.S C C.S   1 y C q y ",
"A.c n V.y C y c S.Z.C /.n y 0 = C.!.c = c 0 y C W.r y V.0 O V.V.S . L.r o V.V.r & 0 y A.K.c V.r S C . S c S S S q S.Z o q y n K.",
"V.V.q W.r $ S /.A.= C n C.y = S y L.S.L.n # q S W.A.q 0 V.c y W.0 Z.P.% S S & n S r = & C.n y A.& $ ).K.V.L.= v S.& C.K.r r = S ",
"A.K.S K.y I.W.S o n V.n A.A.S.P.o   A.y y S n n c (.n L.O C C y n I./.A.A.y S.C.c n L.S.S P.I.n A.C . (.Z.S.A.O S n r 1 K.O & K.",
"c P.K.Z.A.A.q Z.A.A.q A.K.Q.I.n S q & C.c r c A.O Z.L.Z.`.$ r Z.L.S.y A.S c n X K.W.A.0 P.C.C.C.C C C   P.c (.V.n c r n C Z.  o ",
"A.c n n q c i q C & Z.C . Q.c 0 Z.* 0 r S.A.= S.y 0 S.C S !.q # C 0 S C.y C.r F.L.V.r y P.= V.A.V.C y S.& r V.L.c y t y A.I.I.y ",
"y S C K.V.$ q d 1 V.C   c Z.& S A.c A & $ r Z.y A.n S n A.  q K.% = r C /.C S.A C c n q C.K.Z n Z C & 1 Z.c & ^.A.q q c % q I.W.",
"r n C r 1 C C i y L.o : n C C S.0 n n r q O y Z.c C ^.n q _.C.# n   r ).0 S C.W.L.# S O C % n b y C y * X n r 0 A.y C y P.  # ^.",
"# n & S A.= S.c C.0 r y A.n L.A.K.V.L.V.n q * L.K.S.r (.C # t L.q o W.y A r Z.!.o K.= 1 A.= 1 Z P.y v K.S V.W.L.S C.V.q y `.C.% ",
"V.A.  `.X q K.S.% r r v S.A.n A.C.y Z.C.c S I.(.Z.& Z.O W.P.# r o 0 S.. `.. (.O C q $ C C q S.C.y P.& & 0 V.0 C K.r C S.* O L.V.",
"K.  I.A.# W.I.  % = C q A.c n y 0 c n Z.P.& y K.F.q & o . O F.Q.O P.. Z.S y # S A V.Z n y L.c # = n A.0 C c C.P.W.r V.y q A.  C.",
"o n C.= Q.P.r O K.V.K.r S.Z.0 C V.c !.V.A.n C b P.V.& C c 1 O o $ Q.0 A.  P.= Z.C L.A.r ^.c q n q 1 C.B r K.V.C.c A.c 0 0 S P.  "
};
