/* XPM */
static char *rocket_right1712636835[] = {
/* columns rows colors chars-per-pixel */
"64 64 187 2 ",
"   c #010101",
".  c #0B0B0B",
"X  c #131313",
"o  c #191918",
"O  c #1B1B1B",
"+  c #161737",
"@  c #232324",
"#  c #2C2C2C",
"$  c #292935",
"%  c #343434",
"&  c #3C3C3C",
"*  c #555536",
"=  c #626331",
"-  c #7B7C38",
";  c #24264F",
":  c #2F3045",
">  c #3B3B42",
",  c #3D3D54",
"<  c #1D2177",
"1  c #232661",
"2  c #2E3067",
"3  c #393A6F",
"4  c #222575",
"5  c #242875",
"6  c #2F3276",
"7  c #3C3E78",
"8  c #3E4076",
"9  c #444444",
"0  c #4C4C4C",
"q  c #565745",
"w  c #535353",
"e  c #585856",
"r  c #56565C",
"t  c #5C5C5C",
"y  c #69694C",
"u  c #76774A",
"i  c #64645D",
"p  c #6F725A",
"a  c #737658",
"s  c #777A5E",
"d  c #7A7D5E",
"f  c #48496F",
"g  c #545668",
"h  c #5C5E6C",
"j  c #44477A",
"k  c #4F5076",
"l  c #4F537C",
"z  c #575B75",
"x  c #595D70",
"c  c #505478",
"v  c #5F606B",
"b  c #646464",
"n  c #666967",
"m  c #6C6D65",
"M  c #656769",
"N  c #6C6C6C",
"B  c #6F7264",
"V  c #727563",
"C  c #777A60",
"Z  c #7B7B67",
"A  c #73736A",
"S  c #6D6D71",
"D  c #6F7072",
"F  c #747474",
"G  c #7A7A74",
"H  c #73737B",
"J  c #7C7C7C",
"K  c #7D805C",
"L  c #818333",
"P  c #878939",
"I  c #97993D",
"U  c #A5A839",
"Y  c #B7BA3E",
"T  c #868744",
"R  c #8D8E44",
"E  c #84864C",
"W  c #8F9149",
"Q  c #979848",
"!  c #9B9E4F",
"~  c #868955",
"^  c #8B8D54",
"/  c #838759",
"(  c #8F9057",
")  c #949551",
"_  c #999B51",
"`  c #99995D",
"'  c #A9AB49",
"]  c #BABD46",
"[  c #B2B548",
"{  c #B6B848",
"}  c #8C8D64",
"|  c #85866A",
" . c #848476",
".. c #9FA069",
"X. c #A7A868",
"o. c #B6B763",
"O. c #A2A275",
"+. c #BEC057",
"@. c #C3C544",
"#. c #C7C943",
"$. c #CACD42",
"%. c #CACD48",
"&. c #CED143",
"*. c #D2D543",
"=. c #D6D943",
"-. c #DADD43",
";. c #DEE144",
":. c #E2E545",
">. c #E6E947",
",. c #E8EB47",
"<. c #EBEE48",
"1. c #EDF047",
"2. c #292D85",
"3. c #2E328A",
"4. c #3A3D82",
"5. c #252A98",
"6. c #2F369F",
"7. c #343792",
"8. c #393D94",
"9. c #373C99",
"0. c #252CA2",
"q. c #282FA7",
"w. c #262DAD",
"e. c #292FAC",
"r. c #2D33A4",
"t. c #2A31AC",
"y. c #3339A5",
"u. c #3539AB",
"i. c #262EB3",
"p. c #282EB2",
"a. c #252DBC",
"s. c #282FBF",
"d. c #2930B1",
"f. c #3E4085",
"g. c #3E438C",
"h. c #3B4198",
"j. c #3D41A1",
"k. c #424483",
"l. c #454B83",
"z. c #494D80",
"x. c #42468D",
"c. c #5C5D8A",
"v. c #434694",
"b. c #40449D",
"n. c #464A9C",
"m. c #585B9B",
"M. c #5E619D",
"N. c #797A8A",
"B. c #62659E",
"V. c #686B9F",
"C. c #757798",
"Z. c #4144A2",
"A. c #7679A2",
"S. c #252EC4",
"D. c #232BC8",
"F. c #2730C6",
"G. c #2830C3",
"H. c #838383",
"J. c #87878D",
"K. c #8B8B8B",
"L. c #888A9D",
"P. c #939393",
"I. c #9C9C9C",
"U. c #AAAB95",
"Y. c #8B8EA6",
"T. c #8F91A2",
"R. c #9393A6",
"E. c #9E9EA4",
"W. c #9597B3",
"Q. c #A3A3A3",
"!. c #ABABAB",
"~. c #ABABB3",
"^. c #B4B4B4",
"/. c #BBBBBB",
"(. c #ABACC3",
"). c #B6B7CD",
"_. c #BDBFD5",
"`. c #BFC1DA",
"'. c #C3C3C3",
"]. c #CBCBCB",
"[. c #C1C3DB",
"{. c #D3D3D3",
"}. c #DBDBDB",
"|. c #E3E3E3",
" X c #ECECEC",
".X c #F3F3F3",
"XX c #FDFDFD",
/* pixels */
"  !.F 0 0 t K.N Q.F P.9 K.P.& 0 H.9 H.I.e I.J !.o 0 /./.0 J F o @ o # J N % P.Q.t N N Q.J ].N N e w N /.b H.I.H.J.w I.X J 9 ].& ",
"J   P.9 e K.t /.K.H.J.F 9 K.n 9 b t b I.0 G % &   Q.{.& t }.  P.{.J.%   . 9 % ^.!.N % K.Q.w t w # F Q.w G J.J J b . n J H.& P.  ",
"J.!.o % Q.F t Q.J 9 J 9 & 9 !.n I.t I.I.S b 0 % P.!.N   XXX J H.@ 0 Q.^.9 N % K.|./.K.0 P.H.F N J.Q.% F i # & N #  XX XX  P.9 & ",
"& H. XN e J H.H.'.].F J Q.N 0 }.P.!.b I.M 0 0 K.b K.9 P.H.@ P.X N J o J .Xw P.I.Q.% w H.J !.P.K.J & % Q.9 9 Q.  .Xw w b M }.  b ",
"].# . Q.w H.N H.& t b . # F D e P.H.b F 0   '.t t F e n 0 N J 9 . !.}.0 b '.J t P.M   w N t 0 w b b 0 H.X N % /.P.K.K.w XX@ X F ",
"/.^.0 @ t 0 w K.{.% t H.9 9 n J F 9 J n . b I.& b 0 # J ^.F t S !.9 o  .n H.F K.t P.b X 9 M N F K.b H.b w J J t P.P.G '.F 0 & 9 ",
"b ^.!.Q.n w 0 N /.H.b & P.9 b '.9 b ].X F P.% F N % F e N t G H.X v /.J.P.F N 9 P.% ^.P.0 & t w H.K.t '.9 % K.].I.9 J n P.w & H.",
"X   P.n n t N N H.{.b I.o H.F b F Q.|.I.K.N H.P.G N H Q.K.P.].t K.0 @ XXJ '.N % P.b % i I.# 9 I.I.K.N /.w /.'.J O t F F P.K.I.!.",
"Q.# @ I.0 0 F H.@ K.!.H.XX. N J !.Q.Q.H.M N N @ F './.b !.G P.P.A N F . /.b {.N J w G w N H.  o N {.P.H.Q.Q.t G H.I.0 H./.{.^.N ",
"G % w 0 !.H.& P.N & E.J.H. X% 9 b r 1 N.N J.9 F }.K.& % |.0 H.H.K.J t J.# b I./.F & % M Q.I.'.& K.t H.N 9 t 0 n N % !.N % '.F 0 ",
"!.b t 9 O F Q.0 G F N J F   G H.: y.s.s.j.v F /.N M b J 0 K.N J.N J & & J N & ].J H 9 w & M ].Q.N N N I.P.& % N % K.D   e P.@ H.",
"t 9 J w 0   G J.J N {.b b }.b % 3 s.G.G.F.9.K.H.^.% N   P.e F b e F t 9 X t 9 9 I.% H.t K.  # '.9 H.H b 0 t F N F Q.O # H.n J P.",
"P.P.Q.K.b t O Q.P.J N }.i % K.Q.8 s.G.G.G.G.j  Xo P.w 9 J.% t t /.e e Q.J J '.].H.K.Q.% F XXJ & X H.# H.P.# I.t I.w & N H.J Q.P.",
"K.b I.b N P.].].Q.t G & }.P.  > 5 s.G.G.G.G.p.; N w X n F 9 J P.e /.& % 9 K.0 N I.w H.K.% . |.9 K.P.  |.X F I.K.% 9 t N I.H.G Q.",
"0 N H I.H.# S ^.I.# 9 O   0 /.}.< s.G.G.G.G.G.5.D n H.N D I.J % & F I.0 F b G E.{.t F N J J   K.I.  {.K.o '.^.  % & N S H.F H J ",
"F 0 !.F ^.t w F /.H.@ t e X o . 4 G.G.G.G.G.s.a.8 ^.J w '.J 9 t M 9 H m e P.H.P.b H.F 9 @ F !.  o F N % {.I.0 X P.t G 0 J J & b ",
"J % K.E.w K.Q.J . w I.].e K.H   5 G.G.G.G.G.G.G.r.r 0 !.H.E.M G t & t '.w N K.N K.o !.o F X .XX   '.w % b t H.N I.F H.t H.I.. N ",
"F n N F F e % &   I.{.% F {.. H.A.G.G.G.G.G.G.G.G.j # J !.b H & # N Q.t F H.H.J D % b G H.9 Q.X n   !.b e H.D '.P.K.N b % !.t w ",
"/.t I.I.N t & 9 K.^.b   XX. H.H.5 G.G.G.G.G.G.G.G.u.J.0 H.N.J F J I.& F e & w N   XX  |.@ H.o % K.I.X % K.D e I.t e K.9 % % !.F ",
"I.P.H.G F 9 t H.t I.% I.N # P.o x.G.G.G.G.G.G.G.G.G.6 J K ~.P.H.J & & I.& 0 !.  XXD t e G }.  M b I. X0 M Q.F P.'.].N H./.b w ].",
"J I.t t 0 O I.b b N b w w N K.9 < D.a.a.a.a.a.a.i.a.5.& v S t 9 M b 9 K.o n # ^.I.I.D N ].% . i Q.@ . P.e H.0 I.% w t   & b K.t ",
"H.9 K.e @ e P.9 M 0 # F ^.A u u p m V a s d / / ~ E K L P T E } | y A i e D N M J Q.F }.J n 9 % ^.^.b 9 w 0 t Q.'.& H G % % H.J ",
"e t '.% t K.9 F N & F b r W -.>.>.>.,.,.<.<.,.<.<.1.<.,.>.>.:.:.:.-.*.%.Y U _ U. .q F 0 P.9 0 K.N !.Q.I.0 % e b '.F F % I.w D Q.",
"b ^.|.I.P.M P.H.J t P.P.J.` >.,.,.,.,.,.,.,.>.>.<.>.<.>.,.>.,.,.,.1.1.1.<.<.<.>.-.$.' ( Z H.Q.I.  . H.b H.t b N P./.F Q.  H.F H.",
"^.I.P.K.N K.i @ F /.'.t Q.) ,.,.,.,.,.,.,.,.,.,.,.,.,.,.,.,.,.*.[ _ _ [ =.:.,.>.,.,.,.>.-.+.O.m P.. e F e 0 F J X I.H./.{.X G K.",
"F w # !.H K.0 F }.H.9 % |.P ,.,.,.,.,.,.,.,.,.>.,.>.>.,.,.;.) l q.i.p.t.l _ :.,.,.,.,.,.,.,.>.$.W * & D I.J.% Q.M * !.H.P.{.# % ",
"0 % J e !.M K./.N i F J 0 ` >.,.,.>.>.,.,.,.,.,.>.,.,.,.;.s t.F.G.S.s.G.S.t.C :.,.,.,.,.,.,.,.,.>.] a 9 . H.J b v H.e F t @ b Q.",
"N   #  XG J Q.H.^.% H   K.P >.>.,.,.,.,.,.>.,.,.,.,.,.,.~ i.S.t.n.B.M.9.a.S.w.^ ,.,.>.,.,.>.,.>.,.,.=.q %   H.J.N.H.].t e  Xw # ",
"N   ^.F w M t XXO K.t 9 H.P >.>.,.,.,.,.,.,.,.>.,.,.,.$.g.D.t.A.).[.[.(.m.p.G.g.&.,.,.,.,.>.,.,.,.,.1.s 6.2 > I.H.J.b .Xe % I.J ",
"% % Q.o  X# ].& F 0 o t N - *.*.*.*.*.*.*.>.,.,.,.>.1._ i.a.M._.`.`.`.[.(.b.S.i.! ,.,.,.,.,.,.>.,.,.>.s S.s.Z.R.J e e w '.J.@ % ",
". Q.@ b K.0 % b J t K.f 7.8.x.g.g.g.g.x.g.^ >.>.,.>.,.C S.t.W.[.`.`.`.`.[.V.a.a.d ,.,.,.,.>.,.,.,.,.,.s s.G.G.s.v.$ w     O {.}.",
"@ ^.b E.# I.& J b !.H.7.G.G.D.D.D.D.D.D.D.x :.,.,.,.,.V S.t.W.`.[.`.`._.[.A.a.S.C ,.,.,.,.,.,.>.,.,.,.s s.G.G.t.c.H o F b #   @ ",
"@ . X b e # H I.F 0 t N.k.k.l l l l l l c _ ,.,.,.>.,.~ a.p.A.T.(.`.`.`._.m.S.a.^ ,.,.,.<.>.,.,.,.,.,.C s.p.f.H X e Q.{.w Q.b X ",
"{.].9   X % & ^.!.K.X K.Q.P -.;.:.-.:.-.:.>.>.,.,.,.1.{ r.G.b.L.h T._.`.Y.t.F.r.] ,.,.,.,.,.,.,.>.,.,.a 3., & O   /.'.O P.I.  /.",
"% @ J '.t N e J {./.!.w N ` >.,.>.>.,.,.>.,.,.>.,.>.,.:.n a.a.b.C.N.W.A.y.G.a.M :.>.>.<.,.,.,.,.,.>.{  .w G & 0 K.Q.b   XX. !.e ",
"F I.% e  Xt H.H.U.% & J.F ..>.,.,.,.,.,.,.,.,.,.>.<.>.>.#.k.S.S.w.y.u.i.G.S.j #.<.,.,.>.,.,.<.>.*...m J n 9 g G t I.9 Q.e @ F & ",
"# e .Xt e ].H.H.J.H   & m W ,.,.>.,.>.,.,.,.,.,.,.,.,.,.,.@.x t.S.D.S.S.t.h @.<.>.,.,.,.,.:.*.I  .H.t F # O !.w H.b w 0 e J.F 0 ",
"Q.n o t J F H.e t H.P.  9 R >.,.,.,.,.,.,.,.,.,.,.,.,.,.,.,.-.' B z z p ' -.>.<.<.>.>.=.Y L A J J . Q.0 X H.H.e 0 9 w K.^.M H.0 ",
"@ @ XXJ I.K.0 N I.% J.P.S P ,.,.,.,.,.,.,.,.,.,.,.,.,.,.,.,.<.<.>.:.:.<.1.1.>.;.%.[ T * P.9 H.!.0 H.^.# J G % N F e w 9 K.t t !.",
"P.J.  }.Q.P.I.o J n 0 t H.T <.,.,.,.<.,.,.,.,.<.,.<.<.,.<.,.,.,.:.;.=.$.Y Q ^ y m ].m !.. G H.t D /.}.P.P.b I.J.n b Q.I.J ^.^.N ",
"H.e P.X I.G /.I.J t h b A ( =.-.:.-.=.-.=.=.*.$.&.#.@.] { o.X.Q } = * G t 9 F H.X P.Q.P..XX N J !.K.H.K.F H.e X K.'.^.9 /.G P.J.",
"^.F w I.@ n H./.t w 0 e I.K.U.* k l l l.l.g.g.h.8.9.4.b o ].N 9 M 0 0 e I.I.@ Q.N & Q.J K.{.& & F 0 N K.0 J 0 Q.].J # w '.0 H.K.",
"H.K.@ & J D 0 !.!.0 0 b 9 e '.P.t.S.S.G.G.S.F.S.G.G.k.  t K.% F I.M i & @ N I.w J F F F F   H.J & # w F }.F P.K.b N F N F H.n P.",
"0 K.t 9 . t t # Q.> H.> !.X X !.q.S.G.F.G.G.G.F.G.d.+ > M F F I.r 9 F t 9   F P.N n '.F b  XM & b   0 .Xb e Q./.^.@ n X G w F 0 ",
"{.w n ^.G N '.].H.H.Q.w t .XP.> 0.G.G.G.G.G.G.G.G.6 0 t P.b !.P.I. .^.H.J.9 # ^.I.P.N  Xw # J P.9   |.0 D N J ].  Q.w 0 P.% 0 H.",
"D Q.0 # > I.9 N I.b t U.9   '.w r.G.G.G.G.G.G.G.d., w M I.P.b P.K.N J.H.w Q.].].H.& n @ }.P.@ t   t K.@ |.X  XX H.9 # N H.% E.P.",
"& t ^.% F H H.P.}.t F b S P.o M j.G.G.G.G.G.G.G.2.& F 0 I.n H N 0 b J I.G # F !.Q.& w X   # ^.].o /.. I.N N X H.H.F b N b Q.t # ",
"F @ H.H b G F I.b F J.% # F E.o 5.G.G.G.G.G.G.i.H n K.& J.G % F H.0 /.J ^.b b n Q.H.o F t @ @   @ ].& Q.% H.0 F b !.P.t '.N 9 n ",
"0 9 e '.0 J K.S P.# J.o J   |.@ 5.S.s.G.G.G.G.7 J.H.K.b D K.% t F 9 K.K.& !.N I.. e Q.'.9 I.i . #   @ e t % H.Q.D 0 b Q.J Q.e J ",
"& n Q.i F G F G N @ N H.Q.% /.  8.G.S.G.G.G.t.I.I.K.F M t G J & D J e Q.t 9 9 @ . /./.X Q.^.  !.}.'.&     9 % Q.^.b & J Q.F N 0 ",
"P.P.9 S n @ w F . XX  |.  K.& # v.G.G.G.G.s.k Q.F & P.9 % & Q.J I.w P.!.i F & 0 J !.F   XX  !.t   # J |.9 b t Q.'.'.I.M N P.n K.",
"F % 9 P.9 0 ^.   XJ.e t J .X  t 3.G.G.G.G.x.b J /.}.0 P.!.b t '.P.!.F J N & t J t P.& Q.t @ D # J !.# w XXe K.J !.X t t P.I.P.K.",
"b N 9 K.X S @ ^.K.I.J t  X#   t ~.i.S.s.2.D b Q.9 & H.  9 F F 0 H.J.b F # o Q.w J b 0 0 t P.H 9 # N }.0 N ].H.D J.G   9 t F 0 t ",
"P.i D H.t F r b I.K.D }.N t 0 & H.E.7 2 g 9 t F ].w t H.9 @ H.H.J . Q.w o H.H.e % 0 t K.Q.b H.w J F . J b J J F w I.G X 0 t n !.",
"H.H.w ].e # J |.I.% J N H.e & J e !.P.^.N @ 0 J /.K.0 9 H.t b '.9 K.^.% J J % N H w 9 % K.N i K.% #  XI.H.!.& n P.% J.E.w w & G ",
"P.I.J I.t /.'.G o M H.N P.I.I.!.X   I.t t G N N N |.N !.O F F t N ^.|.P.K.b I.H.b N !.I.J ^.^.N K.F .  XP.I.P.o J N w 9 I.@ % Q.",
"b ^.Q.K.P.P.0 K.K.I.0 P.Q.].^.D J 0 % J.n w i P.o K.!.K.XX# e K.Q.Q.t P.H.b N X I.'.P.0 ^.H.J.K.F F F   ^.b |. .N b e M D K.  X ",
"P.b N N w t i 0 F % K.F X '.n & K.% 9 w I.K.& I.t 9 I.F J ].0 @ F 9 G J.t H.w I.!.J.w t ^.& H.P.H.F t I.% e H.^.b t t t I././.t ",
"t J F Q.H.# 0 t & H.G   t P.% G P.m H % # w K.t P.N N.m P.  0 Q.% % w F }.J I.F F b N 0 H.Q.G N H A % 9 J.b % ].K.0 0 t % 0 /./.",
"w N F e > F F b t !.X 9 N F F I.9 N N w w o t K.n N {.N 0 .XH.@ N   e  X9 J H.'.!.@ G O F % S b e J t % X M w 0 P.b G t ^.  @ {.",
"@ N % J P.& I.b K.9 w t P.N ^.P.Q.J !.H.N w & !.Q.Q.0 |.D @ e !.9 X '.t F t K.].X U.& 9 P.& 9 G ^.t N Q.J H.'.!.J J.H.0 t XXK.% ",
"H.P.  XX. 0 Q.I.# w e M I.P.M P.K.e K.K.b J ^.|.K.% K.o './.@ w o 9 I.X XX   Xo F 0 $ S F 0 I.K.t ^.% % 9 H.0 N Q.e F I.% o !.H.",
"Q.  /.K.@ '.'.  # 9 F 0 P.b N t 0 b N K.!.% t Q.I.0 % X . O Q.'.o ^.  K.J t @ J D H.H N t !.t @ & N P.0 F b H.^.'.0 H.t 0 P.  J.",
"o N J.& ].^.w O I.J Q.w I.K.9 F J b ].H.P.F F b ^.H.% J b & o X # ].9 I.  ^.% K.F !.I.w {.b 0 F 9 9 J.N e I.J.H.b I.t 9 0 G ^.  "
};
