/* XPM */
static char *design_854007_640__1_17126386441712638665[] = {
/* columns rows colors chars-per-pixel */
"64 64 256 2 ",
"   c black",
".  c #010101",
"X  c #020202",
"o  c gray1",
"O  c #040404",
"+  c gray2",
"@  c #060606",
"#  c #070707",
"$  c gray3",
"%  c #090909",
"&  c gray4",
"*  c #0B0B0B",
"=  c #0C0C0C",
"-  c gray5",
";  c #0E0E0E",
":  c gray6",
">  c #101010",
",  c #111111",
"<  c gray7",
"1  c #131313",
"2  c gray8",
"3  c #151515",
"4  c #161616",
"5  c gray9",
"6  c #181818",
"7  c #191919",
"8  c gray10",
"9  c #1B1B1B",
"0  c gray11",
"q  c #1D1D1D",
"w  c #1E1E1E",
"e  c gray12",
"r  c #202020",
"t  c gray13",
"y  c #222222",
"u  c #232323",
"i  c gray14",
"p  c #252525",
"a  c gray15",
"s  c #272727",
"d  c #282828",
"f  c gray16",
"g  c #2A2A2A",
"h  c gray17",
"j  c #2C2C2C",
"k  c #2D2D2D",
"l  c gray18",
"z  c #2F2F2F",
"x  c gray19",
"c  c #313131",
"v  c #323232",
"b  c gray20",
"n  c #343434",
"m  c #353535",
"M  c gray21",
"N  c #373737",
"B  c gray22",
"V  c #393939",
"C  c #3A3A3A",
"Z  c gray23",
"A  c #3C3C3C",
"S  c gray24",
"D  c #3E3E3E",
"F  c #3F3F3F",
"G  c gray25",
"H  c #414141",
"J  c gray26",
"K  c #434343",
"L  c #444444",
"P  c gray27",
"I  c #464646",
"U  c gray28",
"Y  c #484848",
"T  c #494949",
"R  c gray29",
"E  c #4B4B4B",
"W  c #4C4C4C",
"Q  c gray30",
"!  c #4E4E4E",
"~  c gray31",
"^  c #505050",
"/  c #515151",
"(  c gray32",
")  c #535353",
"_  c gray33",
"`  c #555555",
"'  c #565656",
"]  c gray34",
"[  c #585858",
"{  c gray35",
"}  c #5A5A5A",
"|  c #5B5B5B",
" . c gray36",
".. c #5D5D5D",
"X. c gray37",
"o. c #5F5F5F",
"O. c #606060",
"+. c gray38",
"@. c #626262",
"#. c gray39",
"$. c #646464",
"%. c #656565",
"&. c gray40",
"*. c #676767",
"=. c #686868",
"-. c DimGray",
";. c #6A6A6A",
":. c gray42",
">. c #6C6C6C",
",. c #6D6D6D",
"<. c gray43",
"1. c #6F6F6F",
"2. c gray44",
"3. c #717171",
"4. c #727272",
"5. c gray45",
"6. c #747474",
"7. c gray46",
"8. c #767676",
"9. c #777777",
"0. c gray47",
"q. c #797979",
"w. c gray48",
"e. c #7B7B7B",
"r. c #7C7C7C",
"t. c gray49",
"y. c #7E7E7E",
"u. c gray50",
"i. c #808080",
"p. c #818181",
"a. c gray51",
"s. c #838383",
"d. c #848484",
"f. c gray52",
"g. c #868686",
"h. c gray53",
"j. c #888888",
"k. c #898989",
"l. c gray54",
"z. c #8B8B8B",
"x. c gray55",
"c. c #8D8D8D",
"v. c #8E8E8E",
"b. c gray56",
"n. c #909090",
"m. c gray57",
"M. c #929292",
"N. c #939393",
"B. c gray58",
"V. c #959595",
"C. c gray59",
"Z. c #979797",
"A. c #989898",
"S. c gray60",
"D. c #9A9A9A",
"F. c #9B9B9B",
"G. c gray61",
"H. c #9D9D9D",
"J. c gray62",
"K. c #9F9F9F",
"L. c #A0A0A0",
"P. c gray63",
"I. c #A2A2A2",
"U. c gray64",
"Y. c #A4A4A4",
"T. c #A5A5A5",
"R. c gray65",
"E. c #A7A7A7",
"W. c gray66",
"Q. c #A9A9A9",
"!. c #AAAAAA",
"~. c gray67",
"^. c #ACACAC",
"/. c gray68",
"(. c #AEAEAE",
"). c #AFAFAF",
"_. c gray69",
"`. c #B1B1B1",
"'. c #B2B2B2",
"]. c gray70",
"[. c #B4B4B4",
"{. c gray71",
"}. c #B6B6B6",
"|. c #B7B7B7",
" X c gray72",
".X c #B9B9B9",
"XX c gray73",
"oX c #BBBBBB",
"OX c #BCBCBC",
"+X c gray74",
"@X c gray",
"#X c gray75",
"$X c #C0C0C0",
"%X c #C1C1C1",
"&X c gray76",
"*X c #C3C3C3",
"=X c gray77",
"-X c #C5C5C5",
";X c #C6C6C6",
":X c gray78",
">X c #C8C8C8",
",X c gray79",
"<X c #CACACA",
"1X c #CBCBCB",
"2X c gray80",
"3X c #CDCDCD",
"4X c #CECECE",
"5X c gray81",
"6X c #D0D0D0",
"7X c gray82",
"8X c #D2D2D2",
"9X c LightGray",
"0X c gray83",
"qX c #D5D5D5",
"wX c gray84",
"eX c #D7D7D7",
"rX c #D8D8D8",
"tX c gray85",
"yX c #DADADA",
"uX c gray86",
"iX c gainsboro",
"pX c #DDDDDD",
"aX c gray87",
"sX c #DFDFDF",
"dX c gray88",
"fX c #E1E1E1",
"gX c #E2E2E2",
"hX c gray89",
"jX c #E4E4E4",
"kX c gray90",
"lX c #E6E6E6",
"zX c #E7E7E7",
"xX c gray91",
"cX c #E9E9E9",
"vX c #EAEAEA",
"bX c gray92",
"nX c #ECECEC",
"mX c gray93",
"MX c #EEEEEE",
"NX c #EFEFEF",
"BX c gray94",
"VX c #F1F1F1",
"CX c gray95",
"ZX c #F3F3F3",
"AX c #F4F4F4",
"SX c gray96",
"DX c #F6F6F6",
"FX c gray97",
"GX c #F8F8F8",
"HX c #F9F9F9",
"JX c gray98",
"KX c #FBFBFB",
"LX c gray99",
"PX c #FDFDFD",
"IX c #FEFEFE",
"UX c white",
/* pixels */
"X Q.1.R Q } v.:.L.8.V.I j.m.S / a.L g.G._ J.y.Q.0 ! }.+XE r.5.8 y 3 g u.-.b C.Y.| >.;.Y.t.<X1.=.` ` ;. X@.d.A.a.g./ S.5 u.U 1XZ ",
"y.X S.K _ c....Xc.g.k.6.H c.$.K %.+.$.S.R 9.m C   U.9XZ } pX  C.rXk.B   $ J m [.!.:.n k.R.( X.^ h 7.W._ q.j.y.p.@.: *.t.i.A B.  ",
"j.~.4 V K.9.} R.q.L t.F A H ~.*.Z.} H.H.<.X.T B m.!.>.  UX> t.g.w Q W.{.L ,.V k.dX@Xn.R m.p.4.3.j.P.M 5.O.l D ,.f mX, UX  n.G A ",
"S p.MX;.' y.p.d.-X-X4.i.P.<.Q tXN.^.$.G.*.! E b.+.v.I m.d.r M.> :.t.2 w.DX/ M.D.U.c ( f.t.^.B.l.t.Z M P.G L U.X CX` ' @.&.pX  $.",
">Xj % R.) a.;.j.N } -.& k 7.2.' B.a.o.5.Q   @XX.X.6.[ *.E <.u.U ; Q.uX! @.:Xr.O.n.-.  ( -.| W ^ %.%.T g.3 >.b  XM.z.v.` JXs - 7.",
"oX.XY f X.Q ^ x.wXm ..i.J I =.t.3.I t.*.% %.G.F @.! d t.[.7.[ <.Q.D 8 p.%.a.7.j.{ S.@.2 U %.1.6.x.+.g.*./ q.t.[ N.n.9.&X7./ G J ",
"#.'./.L.*.~ ^ >. Xp.%.C Z.D &.%XF &.3X> 8.m.c 9.;.N 6.[ >.] q.d.< +. Xk.B.6.-.J c.m ].N.W A @.) a.l.o.&XK c b.5XD.K w.*.m./ C s.",
"<   m.;.&.o.>.=.d.rX&.G.5 g.4.&.7.Y.jXG.n.-.a.b.w.:.8.L.j.Z.,XX.b.~ h HXr.%X:.b C.&.n @.C.j J C.F.l.;..X` .X#Xa.w o.9.4.N.z.H.(.",
"Y.l i A.! ! 6.a.t x.(.p.KX> :.y.^.J.I.h.:.,.>.u 9.=X@Xo./.0.M.C.3.;.2.- #X@.0X1.r.[ e.( 2.d.  9 <.qXN.i.U.L.o.e.d.F.! f. X7X{.;.",
"9.N ' E E.d.V A.>.S P.j.s.vXv H *.*.d T.r.h.P 8.yXl.S B dXE d.a.l.i.O.j.f %.G. X<.V b =.L.D.=XZ k.} p.,.I X.E *.<.n Q.;.v &X5.^ ",
"Q.#.X.L 6 3.L.W 9.5.<.t.1.O e.s.N ) =.! ].3.8.+X;.$.$.e.E n.1.j.2.e.S C i.;.F 1Xr.8.K _ C =.6XI.>.:.1.H.z.D m -.c v.2.$ [ M.s s.",
"..I e.) E   w.h.t.*.7X@.*.pX+.n _ < t MXu.h.F.d.`.N ,.  n._ 2.#._ 4.| J < } L H D.M s. .v.X f @XK d.8.*.R { 5.;.3.U.8 h s.*.w.M.",
"x.N.L.n.&. .7 T.N.r.:.uXo.B x.T.+.  +Xq.~ | 5.ZX7 M.( L c.b { | oX' O.R.e.w.;X;Xs.x.T.v 9.UXy.D < s.x i.m.h G...S./ N 1.a.e.I.V.",
"c.#.G.$.1.b.4X;XL.| 0.F rXC.. D m t {.t xX< NXf :.) < &.0.K t.B.[ +XC m H x.Q >.G.^ s.j.x & uXK z.n.  lX, 8.J.x.n I o.;.G.g.9.Y.",
"T =.9.F.s.c <.|.D.z I 8   Q XXpX= L.r >.s.G L ) r.&.k.:.3.D.r.M S 7.G.R 6.#.e.J.qX{ 8.:.t.y.  c.Z.  qXj.6 ;X`.  b G :.1.f.2.9.e.",
"0.! Q.6._...^ 4.#Xi.u } ) 3 7 = 9 :X^ L.t I.C q.@.].u./ %Xe.G o.#.F 0.-.' m.u.Z.%.a.5.P p 6.~.@ 5 9.-.N 6XP.E 1 V.[ e.T t.y.B $.",
"y.c x.K.' c.I.r.% ) K.4X' x.0.. i X f 7.Q J 4.J.@.#.W (.p.P.#.q.| F o.+X( >.k.,.v.5 ~.4 6.> SX<   =X( b @.} j.:.J.2.f.X.a.V.% 1.",
"9.=.:.7.8.[ c Z   H.wXl 5.6X= f.dXT.k   - P P }.).y.d e.Q.#.9.A d =.E.[ 1.g.g.q.2.N #.q.k.K L.< -.  ^.#.' d.1.=XM.x.>.+.M ~.o._ ",
"}. .A.D.;. .F K l.'.$.  KX; f.h.5 | b.oXG +.H i.1X3XP.^ h.6.r.7.i.J.D 7.} Z ) >.  UX  dXt j.7 b b.F.4 m z.2.] J...[ c.K m B /.3.",
"H.m.l.9.3.Y  .p.X.F.N A.2.g m.5 >.y.; w.SX` B.F.Y.z U i.u.(.N.p.q.A A P.S R ~.  UX<... .8.uXo &.@.F.nXE :.I.3.V.$X,X,.g.OX@.) >X",
"t.D.X.X.! e Z.*.&.,.#./ ' :.z.K 8 D.MXU @.pX6.,.M.6.@ L @.1.} U *.#.P k.8 &.g  XS.Z.3.<.2Xx ; #.R.p ; m.[ j.Y D.B ' |   V %.x.{ ",
"p.F z.) y _ m.U =.Y z 5.}.p.{ ;.H.!   y.3.$.b.w.{ S.8.q F  .-.x.c.o.y.-...6.2.+.i.I.3.iXr.&.G n [.'.%.F ) Y ..R.@XB 0.q.b b a.u.",
"] | %XM X.j.G 6.;.A 4.$.[ 3.:.k.z l ZX<.c.R.J } !.9 K.B...P ! ] t.m. .+X! b h.wXZ./ t.Y B.J R z.:.(.Y.F.~ V ' $.$X9.2.m S.( 3.I.",
"%.[.hXG.B.&.V.h.r.@.m.B.j.Z.:X%.g.;.; JXN.A.M.y l.@.Q o.x.B A V.n.F.1.^.[ #X Xu.< &.q.c.a.b.Q.H.  % s.#.p.} @.-.V.@X1.T.% a.6.g.",
"[.F.V.z.,.g.O.p 8.oX&X{ E.y.m.I.7.7.;.2 ].>.0X9.w...8.| O.c.  8 O.>X(.5.(.a.=.f.d.S.~ F.P.8XOX3.A., ` 7._ ~ 5.e.2 F.y.oXwX1 0.l.",
"9./ k ^.9.x.Q 5.yXs.P B pX~ y.g.N.9.E F.h X.k.=X1.U M O./.F.OXJ N./ 9.X._ *.(  .y.b H.4.t <X8.I -.Y Z 3.H.j.M U.,.G /.d.M.9Xg m ",
"! v r._ !.&.l.|.:.O.2.y.R N.#.f.$.t.Z Z 8.3.Z %XN.#.^  .S ] dXF.$.2.5.E.a.A v 3.G b.&.* W A.f w.^.P <.L % j.p.@.&.p.{ 7. .y #.K.",
"=.  l NXq.a.I.d.].b 0.  c.' %.+.L i.-.C + :.^ v F.D t.W W.  , 1X^ g.=.&.~ :.6.O.:.U.r n r.#.e.D.I ' <.' c O a.g.t.a.2Xo.[ nX! x ",
";.@ }.3./ -.X.UX0 c.} H h.M ) +.&X) O.!.s.8.;X2Xn.5.S.E &.HXg.S 9 a.l q.F.x L.] l.~ G 5.g.6.J.Z.g.N.OX;.s.H I J.d.j.@.GX| M V.y.",
"m M E.4 BXf 3XC <.Q 6 +.3.U w.J.} oXD z P h./ ,.N.X.2.l.M 3 :X[ y.m.* bX; O.K.F.v L  .X.^.g.:.M.V.} S.1.O.R..XtXz.] ' ) =Xl.i n ",
"* T.t %.x.E c +.r.o.n.-.,.J.9.A b 8.~.Z 7.$.g.n.yX! 7.7.4.u.& z.H.  &Xh.7 eX`.  N P :. .S.1.1.3.H t.' T.N.; f./.!.g )     0 6XyX",
"0 |.#.K.d F.Z a.O.^.k.) $Xi.B O.-.j 0.2.3.p.9.D.O.p.w.v g >.^.. % y.| E  X^.H q M.#.z.Z v.7.V 0.6.X._.4.Q.-.| ;.P.i.0 4.+.l . p ",
"a & 2 +.] h 0.K.4.! X.Q.r.H.;.7.*.H ] [.^ 2.x.:.n.h j.q a.# hXi    X@.J R ' K.o.b.c.y.] r.n.g $.<.G M.n.J `.4.c.< [ R.7X/ R.@.; ",
"7X>XY   2 m Z ).(.z.3 l.T.~ m.x 5 =.|.=.4.y.u.0.,.t <.g.P.c XX  e.  V.#.<.y.^ +XN.A.=.9.T K.X.P :.u.] H.o.E K 6   OX*X7 C.H.  OX",
"N a w.;X[ 2.' q.9X.X!.' ,.b.-.t.f.L.A 4.{ Z ) :.$ UX  pX. j.V h b.@Xs t d.a.-./.-.) s.R Z k Q.t.A./ m.Y. .9.A R x.W.@.  UX= ).] ",
"5.C.M [ cX| d.f.J.m B k.q.~.F.u.z.F x B.Z ~ ).  MXz.' | 6.SX  o.E 2.NX>.+.v.<.y.=X-X:.7.(.$.` 0XB.].6.r.;.F ..w...C.J Y.{ r 3.D ",
"h ' CX .' 1Xs.s.l.8.  S >.@.#.L [ #.) C.0 o.i |.b.D.y.[ nXz + o.vXa + n.D u.@.Y.N ` *.  C -.u.W n.l.o.5.h 9 ~.` i.#.! W ` j.6.Q ",
"T.*.3 +.t.7.s.] | a.b.O I &.` N.z.O.a.,.X.4.<.O.G.x.3.yX:.o.E A n.+X5.B  .] ! y.:Xm 5.j.H h e.s.i.& I.Q 1 i.a.[ T U ) x._.>.d.^ ",
"f w LXi.A.z.Q <.D.b z.M.<.z ` ! m.B.! (.E C x.0XZ.Z w.2.h.} D t.$.^.R.`.;.x T j.%Xr...V J.P u.^.W g._.k r.e.c :.5.] ( I k.....R.",
"M.h.  iXR.N.S.7 a.=.R  .h.U e A.h.F.q.}.{ XX].y.3 *.f.<.n.V.S.Q.#   t...@. .y.| 0.qX>.Q.* q.s.o.1.|.uXC.B.+.G.j.=.%.Y.D.i.[.[.;.",
"p.[ M.2 G.w.#XA.r.o.X.#.4.z.  r _ iXH.7.G.t.,.q.d.D._ V.P.5X+X;.n.b C f.#.U 5.i.2 N.L.n.SX< >.y.W.c.s.z.8.i.{ , v.&X).Y oXe.M.x.",
"|.7./ S.p %.p.OX} ) / { S.K.=XH C.Y $.7.$.} K X.w.C C.0.2 9X3.K #.W Q X.H.A.d U.,.F U.r.j.0XC S 7.! :.x.W y.~ Y.1Xy.z ) #XR a.x.",
"p.l.u S y.<.R /.!.R ^ @.L { -XW.) 4.j.D.r.E V +.D g.5.  [ c.b 6.J.O.O.S u -.D._ e.0.5.7.8.  i.e.Z z ( 2.rX3.m.j.O.-.9.;.3.s.=.N.",
"~ z. .K @ | O.k U.A s.H W.> 2 -X{ ,.1.' ( %.-.:.@.^.> H *.6.6.G.} P 1.X.Y   4.C.=.-.%X6.&.zX-.S $.  ! VX*.{ Y.OX}.y &.3 r./ 5.~ ",
"9X_ :.'.w.,.$X1Xs.f.U.( @.BXB.G a ;.M -.J.g Z.#.j.L ! ..B.*.!.M.F.p. Xu.k.P z _.F.V.=.mX_ l r.N.K   gXE 1.:.w.1X  T.) Y B.n U y.",
"1.R.U h D Z.I <.H.$.| J.I   *X .3.C.t pX# 3.Q.v.g W ^ -.D.B.%.M.v.;.g.d._ I.;X4Xp.G $.s aXb.i  .+ | x.e hX2 cX5 s.K k ,.d.M K.D.",
"F  ./.M 3.9.a.Z.tXX.7.$.>.m.6 2.R.  _.H.s 1XE.. M G 6.! K.*.6.;.E +.q.K.q.z 8.~.R.Z ^ 1   z {.>X6 oX% H.3.:.5 a.i.8.;.-.$.U.{ g ",
"6.p f.9.*.w.1.F.%.4.j.B g 2.L.4 + Z.R W R.Q.E 7 b.=.l.A g.9.M 4.s.Q +Xq.`.+.*.*.T.p.7 7.| t q & w 3XG P.x i.! 5.O.).N.} *X-.P -.",
"Q J { =XT r.z.,.M.g g.7 y.O hXp X G.9.B H ,.h.-.N.p.k.@.3.x.z O.5.S v.v.D W.1.V.% ] E.1XI K.o.= v   a ' } v g.I.3.R #.Q.y.R.] e.",
"A *.R.o.9.8.8.9.<.y <.f.L.c oX  9.. b.-.7.q.} oXG.v.8.*.{ w.y.Z 2.u.] L.o.U K t % +X}.> K.'.  /.rX=XG   O F x E.{.*.M e.U.3.<.T ",
"m.N.F 1.;.a ^ 5.% UX  sXO l.C h j.5X5 f z.2.0.Y.8.F N.P b V P.t.D./ M.Q.o.7.A ^ r.^.4.  HXX (. .# k y.aXP $.} R.-X:XB.&.;.B.&.l.",
"4.B G B.F W .XX nXz.[ o.9.FX  X.W 2.ZX,.+.v.;.e.XXrX~ b.).#.X.*Xb._.7.u.;.Z } q.| M.Z J. .f 2.l 9.^.g ^ UX] j.r.R.2 @...Z.A.C.j.",
"$.,.U v., <.a ).x.A.y.{ mXz o  .NXf = V.H s.+.Y.J D i.  P 6.3.R k.j.+.7.h 7 W.( p.@.R T  .B.9.G l =.rX^ -.1Xi.1.l.9.. L | 7.E | ",
"V.O.3.a...5.| #.D.l.2.yX;...Y V g.2XO.D +.K | 4.>X~ ..s.K q f.g.e.= Q./ 2 a.d.] N Y O.m.R.O.p.) e.4.@ i.%.e.y.0.~ H.q.< Q } ;.Q.",
"a.h./ >X` l y.dXA.Z q.1.f.{ D y.{ /.S._.;.i W u.$Xc.^ J s.+.o.#XY l.|.l e.t.m :.w./ F m z.:.X.n.n h mXL.p.^.Z *.A.b l.K._ ( S 0.",
"B.H.e.G.} .X$Xw.7 -.f.,.b.C.G./.<   S.{ o.w.,.:.*.gX<.^.7 8.8.X.-..XsXM.v.O.H.f.%.;.~.D.e.].|.<.b.5.% nXm.J.m.9 y.:./ L K.w n T.",
"@.}.I.k.B.V.E l.x.S.~ N.K.>X.X2.t.R N k.*./ o.b.8 c.^.z.UXs ' x.R.J...N.p.@.<.> K.*XC.T }.h.l.k.4.3.6.+ {.#.fXp.>.$.` -.2.c.  4 ",
"N.+.:.2.~ O.o.^ 8.c x.6.: >X&.F l.N G / G.n.Z F. .U Z.9.t.1X! i 8.U q.j.} f.) P.^.k.( { _.Z d.n.k.6.| A.n ' f.).@.{ ]  .A.oX@X{ ",
"X.r.4.U.y.k R O.G g.8.. +.n.n 9.M.-.0.m h / n...n.,.i.-.b.@ Q I.l C / 3.tX8.F.8.4.$.>.R k.U.e.=.8.2.b H k.$.M 5Xn.! T +.l E XX@X",
"~ 1.7.' G 6.6.@...W.: K ;.6.4.D.L -.,./ / 7 X.z.%.<.4X,.W VXg.a :.  ' MXL y.f.&X(.t e.8 7.l <.&.] q...V ; =._ I M.+.9.| '.O p 7X",
"i >.c y.n.D S.&.k.I ^ X.V.;.(.V.W.u.!.d.<.^ C ~.P.L.~ hX5.t ] ~.Y 1 =X{ 9.` v.<X< I.V P N.D H q.{...=.Y.r.s.-X/.w.h.s.E +.HXz.v ",
"d.Z.  UX; ~ T.D.z ) ` -.D.Z.-.N.z.] z.j.O.e. XjXb.x b.9 &X|.u ` 3 J H.; IX+ zX8 7.~ h 4.6.T H.z.} }.v N L h.U ,.U.[ 7.D.N 7 ^.d.",
"L.  OXc.t %X%X  l F 6.Y Z.+.>.} Y #.;.l._.m [ T.K.W b > ; 8 U.,X8 ].# x.r.} r y.5.p.9.;.X.(.X.r S ,.N.U 5.@.f.}.=X/ i...~ m.  j.",
"3 <.h.A :X}./ 0 J.i.T.( D.x.L 7.u.$.3Xa.B.1.6.#.[.s.m 0.+.D 5 > l <XI Z.o (.C x.6.^.C.( 9X#.Q 1.U J k.,.' H.f.j.*.B.o.U U w.'.  "
};
