/* XPM */
static char *wall1712636835[] = {
/* columns rows colors chars-per-pixel */
"64 64 256 2 ",
"   c #040307",
".  c #0B0104",
"X  c #03020C",
"o  c #0C020B",
"O  c #190107",
"+  c #13030C",
"@  c #050314",
"#  c #0B0313",
"$  c #050917",
"%  c #0C0A15",
"&  c #03031B",
"*  c #0B041C",
"=  c #010A1C",
"-  c #0D0A1C",
";  c #130313",
":  c #190716",
">  c #13041B",
",  c #130C1B",
"<  c #04111D",
"1  c #1A131B",
"2  c #260206",
"3  c #380308",
"4  c #280417",
"5  c #36081A",
"6  c #2C1414",
"7  c #36251E",
"8  c #030522",
"9  c #0B0423",
"0  c #030B24",
"q  c #0C0B23",
"w  c #03052B",
"e  c #030B2B",
"r  c #0B0C2C",
"t  c #130422",
"y  c #130B24",
"u  c #130D2B",
"i  c #190828",
"p  c #091328",
"a  c #191429",
"s  c #050B35",
"d  c #0B0D33",
"f  c #160A33",
"g  c #041334",
"h  c #0C1334",
"j  c #081839",
"k  c #171637",
"l  c #280626",
"z  c #370826",
"x  c #251628",
"c  c #371529",
"v  c #290A38",
"b  c #360A38",
"n  c #271938",
"m  c #371938",
"M  c #072436",
"N  c #182436",
"B  c #2A233B",
"V  c #332932",
"C  c #3A2539",
"Z  c #590407",
"A  c #430817",
"S  c #500E12",
"D  c #700D10",
"F  c #712B19",
"G  c #450728",
"H  c #44162B",
"J  c #4D1032",
"K  c #481837",
"L  c #551637",
"P  c #6E142F",
"I  c #49233A",
"U  c #552A33",
"Y  c #6F2C30",
"T  c #73432A",
"R  c #0A1944",
"E  c #181A45",
"W  c #19154A",
"Q  c #281946",
"!  c #2F144E",
"~  c #391847",
"^  c #082549",
"/  c #192548",
"(  c #00364B",
")  c #062B57",
"_  c #172A56",
"`  c #07345A",
"'  c #193559",
"]  c #2A2648",
"[  c #362648",
"{  c #34324C",
"}  c #282A55",
"|  c #372853",
" . c #27375A",
".. c #373659",
"X. c #093968",
"o. c #183865",
"O. c #12326D",
"+. c #2F2E67",
"@. c #273867",
"#. c #353964",
"$. c #461B46",
"%. c #591946",
"&. c #53134E",
"*. c #691849",
"=. c #472648",
"-. c #572648",
";. c #4A334A",
":. c #593548",
">. c #472857",
",. c #572956",
"<. c #453658",
"1. c #573758",
"2. c #662747",
"3. c #762747",
"4. c #72354A",
"5. c #662856",
"6. c #663554",
"7. c #793855",
"8. c #542A6B",
"9. c #473964",
"0. c #563866",
"q. c #6E3867",
"w. c #0D4B6D",
"e. c #1B4D64",
"r. c #174877",
"t. c #274269",
"y. c #384669",
"u. c #284977",
"i. c #354677",
"p. c #2B5379",
"a. c #514357",
"s. c #6C4856",
"d. c #48466A",
"f. c #574768",
"g. c #494873",
"h. c #584B75",
"j. c #475675",
"k. c #5A5577",
"l. c #694667",
"z. c #7B5368",
"x. c #674A79",
"c. c #725171",
"v. c #53657D",
"b. c #736470",
"n. c #891213",
"m. c #933212",
"M. c #85192C",
"N. c #A71D27",
"B. c #8C2D2F",
"V. c #A83733",
"C. c #8B4538",
"Z. c #B3522A",
"A. c #AC5037",
"S. c #C64C2B",
"D. c #89354D",
"F. c #AF3648",
"G. c #893C6D",
"H. c #914B53",
"J. c #B14D51",
"K. c #976956",
"L. c #B8674D",
"P. c #8E516F",
"I. c #AE586E",
"U. c #906B77",
"Y. c #B46F6D",
"T. c #B86879",
"R. c #C75158",
"E. c #D37250",
"W. c #CC5B68",
"Q. c #CB7173",
"!. c #E87171",
"~. c #DF9C65",
"^. c #CE9072",
"/. c #EB9E65",
"(. c #EC906E",
"). c #653D83",
"_. c #0E5286",
"`. c #275788",
"'. c #2F588F",
"]. c #375785",
"[. c #106D94",
"{. c #336891",
"}. c #107AAB",
"|. c #397BAA",
" X c #495986",
".X c #555685",
"XX c #715887",
"oX c #506D8F",
"OX c #466594",
"+X c #576B96",
"@X c #666688",
"#X c #786587",
"$X c #796997",
"%X c #6E7198",
"&X c #4775A8",
"*X c #577AA6",
"=X c #6E7BA8",
"-X c #8D5789",
";X c #AD5986",
":X c #8D7090",
">X c #B26F8A",
",X c #8C79A8",
"<X c #AE7AA4",
"1X c #CE758E",
"2X c #E6788B",
"3X c #1B8CB0",
"4X c #68969A",
"5X c #5188B2",
"6X c #6F8CB1",
"7X c #22ACD4",
"8X c #7198C4",
"9X c #59A8D7",
"0X c #6EA9D4",
"qX c #3CCCEE",
"wX c #60D1E8",
"eX c #71E9FD",
"rX c #98868F",
"tX c #AE8A92",
"yX c #94A59D",
"uX c #8885A7",
"iX c #8D8DB1",
"pX c #9995B8",
"aX c #AE94AE",
"sX c #91A8B3",
"dX c #B4A9B6",
"fX c #D49092",
"gX c #E89290",
"hX c #F89894",
"jX c #D8A68D",
"kX c #F3B08F",
"lX c #D193AB",
"zX c #F59AA7",
"xX c #D0ABAE",
"cX c #F8B3AD",
"vX c #FCCE8F",
"bX c #FBCEB4",
"nX c #E4E3A2",
"mX c #F8E3B8",
"MX c #9199C4",
"NX c #AC9AC2",
"BX c #90B3CE",
"VX c #B1AFD1",
"CX c #92B7EC",
"ZX c #CFB4CB",
"AX c #E6A9D5",
"SX c #82C5D5",
"DX c #AFC7D7",
"FX c #92D4F0",
"GX c #B0DBEF",
"HX c #90F0FF",
"JX c #A9EDFC",
"KX c #F9CFC9",
"LX c #FFD5DA",
"PX c #F7F6D5",
"IX c #D4DBE1",
"UX c #F8D1EC",
/* pixels */
"1 + . . o : , , @ $ & & 8 e 9 8 < < < = & & 9 t l i 9 & & = = $ v v f 9 & & < p < p p p a u 9 9 + . . . . % %   %   X % % # X X ",
"2 + + . o : , 1 - - q 8 q h h e $ = < = 9 9 9 f f 9 u f p 0 = $ Q k f r q r N N = p < a a u t t : : + . . % +   %   % X X X X X ",
"+ O + + + # % , @ * * & e r r q $ = = 0 e u f d w d d h g 0 0 0 d d d r d a k B u a f k u y y i + O + o o : % o % %   % @ # @ X ",
". + : 1 ; o ; % @ @ & & & r e 8 p 0 0 8 p j h w s s j j g j M j g g g g d d u f v n n v i y q y 1 1 1 + + , : % x 1 % % % @ X X ",
". % 1 6 ; # # - * - * 9 9 r r 8 p q e 0 j ^ R e ^ R ^ ^ ^ ^ R ^ M ^ ^ R R W W Q W ! ! v y - - 1 I C V x : : : o a 1 - # @ @ X X ",
". 1 1 x , ; > , $ - 9 8 8 q r 8 u u u h N / ) R ) ) ` X.X.) ) R ( ( ( ) ) _ O.} W W W f p q p p C C n x : ; ; # : % # # X % @ X ",
"+ 1 1 1 1 , # * @ @ @ & q r r q i n ] N R ^ ) ) ` w.r._.X.X.r.`.w.w.X.w.O.O.O.O.O.) _ R j h p p a x a > # > > > , ; % % % % $ X ",
"+ % : 1 , > # @ @ 9 * q u n k k f [ ..} ^ ^ ` ` w._.'.`._.`.&X8Xw.w._._._._._._._._.O.) ^ j h s k k a y * * > > a y , y 1 - % X ",
": % % > % > > * @ 9 9 y u k k a n n Q E _ o.o.`.&X5X|.`._.'.|.8X3X[.[.}.}.3X}.}.[.[._.O.) ) R R B h r u u y t > > i a 1 a 1 % X ",
", , > - > * - * 9 y a a a u f u n ] { /  .p.].5X5X5X&X{.OX{.'.|.3X5X9X9XqX7X7X7X3X}.[._.X.) R W / j e g d q u y * x n x % % % % ",
"y , , * - * * * * n [ ] k n ..k.[ ..d...g.+X*X8X5X{.`.'.OX&X*X6X0XwXFXHXHXeXqXqX7X7X3X}._.r.O.O._ ^ j g d r u k > x n a % % % % ",
", y , * * # - q y a B B ] { f.b.j.j.k.g.@X6X6XMXMX*XOX*X*X+X5X6XCXCXFXJXHXHXHXeXeXwX9X9X|.'.@.@.' ` ^ ^ j d d u u y y , a a - X ",
"- q q * * * q i n y q x [ { <.{ @Xv.@Xk.iXMXMXMX=X.X+XMX6XoXoXoX6X8X6X0XSXGXJXJXJXJXJXFX0X5X{.`.e.e.w.( ^ j r q y y y y x x -   ",
"* q q , * q a a q a [ { { C { <.@Xv.@X4XMXVX,XMX.X+.g.+Xj.y.y.j. X).y.y.v.4XyXsXDXGXGXJXFXBX5X{.`.r.e.` ) ^ j r 9 a n x 1 % % % ",
"@ * q y - y a n y B a.f...C f.#Xj.j.%XuXMXMX$X,X,X9.9.g. .N {  .+.{ { [ I a.s.s.U.rXyXDXGXJXSX0X5X5Xp.w.' ' / h k ] B a 1 , 1 % ",
"& * * q q u B [ { B B { <.a.k.$Xj.oXsXVXVX,XXX,XXXv Q | ] ] / M R / B C I 7 F U T a.b.yXDXGXJXHX9X8X3Xp.e.t. .k ..[ x , a a 1 % ",
"e w k h & q B f.<...] y.p.OX&X&Xx.aXbXxXZX-X).).N 7 a N +.8.U S P P P 3.3.3.G.;XP.z.q.z.tXaXxXIXIXSX4X3Xw.w.e.} ~ ! f e N N a + ",
"w 8 8 9 a B B [ ] { ..y.+X].*X&XXXdXxXxXtXq.8.8.7 1 1 ..8.,.L S D P M.H.P.D.7.H.G.;XU.l.z.:XrXrXDXGXHX4X3Xe.e./ ! ! E k N p 1 + ",
"& 9 u i x n l [ m { #.#.6X].=X6X:XdXtXxXP.&.8.&.I 7 V ;.8.,.7.P.;XT.;X>X;X;XP.-X,.6.c.P.z.l.P.U.rXDXHXSX5X[.@.+.! ! Q / N p , % ",
"# > x > i l x ;.f.h.h.g.=Xk.=X8X$X:XU.Y.%.J &.~ s.T s.s.P.<XlXgXT.I.H.4.2.4.l.P.aXP.-X:XU.s.l.l.k.4X4XSX0X|.@. XW ! } / M p % + ",
"4 O 6 2 l =.n [ h.#X.X@X%X$X=X6X$X1.z.H.z L G A U C.K.>X2XAXfXJ.U Y H A 5 H U 6.aXrX<Xc.,.,.q.,.l.b.@X6X0X8Xp.#.} W / M p p % : ",
"2 6 U :.c C m ~ >.d.h.,XuXpXpXuXXX[ s.4.3 J A S Y L.^.xX1XI.D.D S S S A A c I :.1.q.c.XX1.&.=.,.1.l.h.v.4X8X+Xo._ _ R j p p , % ",
"3 7 U.U.H n =.| Q ] h.%XpXNXZX,X.X~ 1.U 3 3 Z F Q./.vXgXI.M.P n.S S S S 3 3 4 5 =.=.q.-X-X,.~ &.L 6.l.d.v.4X*Xu.o._ ^ j g r q : ",
"3 3 U.U.I I a.<.<.| k.XXiXpXDXk.>.v K H A 2 F B./.kXhXJ.n.M.n.D D B.J.H.4.P A z 5 c b ~ x.XX&.! L -.l.h.y.j.+X Xo.` ) M g 0 q - ",
"2 6 6 6 7 ;.f.@X<.B d.%XpXaXuXa.>.~ b z 6 S F (.vXkXE.m.n.n.A.R.hXcXzXgXzX>XD.4.G l z b $.x.x.>.L J ,.l.9.d.OXOXu.w.` / j = & y ",
"O 6 6 6 x C f.rXk.f.d.b.uXVXiX{ ! b ! G A S A.vXcX(.N.n.Z.E.hXcXzXhX!.!.2XW.I.T.H.P 5 l $.8.8.XX-.G K 5.8.9. X].{.r.` _ / k r & ",
". 1 1 6 6 x f.rXb.k.f.b.pXVX,X#.b b b b 5 F ^.mXhXE.m.n.!.kXcXcX!.!.R.R.J.J.F.M.I.G.G l ~ ! >.,XP.U H -.q.h.+X{.{.].e.' E k e & ",
", 1 , 1 x c :.tX:Xs.a.#XZXVXk...l l ! b 5 Y /.KXhXS.n.Z./.vX/.^.gXhXkX^.R.J.F.P M.G.3.G z l >.,XdXz.I %.5.XX%X*X{.5XOXt.R h r e ",
"p q i x c c U U.tX7.6.U.VXZXh.Q 4 l &.! z H.jXbXhXJ.n.E.vX/.jXbXmXKXbXbXhX!.Q.R.M.M.D.*.z l >.XXdXrXs.-.5.XX.X*X5X5XOX#.} / k g ",
"d h k n I K U I.>XH.4.6.,XAX$X! 4 4 ~ >.I K.kXKXgXF.B.!.vXvXbXPXPXmXnXPXbXgXW.Q.F.D P D.%.5 b ,.yXdX:X4.5.q..X{.5X{.p.@.+.} M 0 ",
"s W } ~ I U Y P.T.4.4.L l.NXXX! 2 : ~ >.;.K.kXbXgXR.N.E.vXvXnXPXPXPXIXmXPXhXW.R.W.M.D *.3.G 5 -.4XIXxXq.5.XX@X].`.p.@.+.+.} j 8 ",
"R +.9.=.K L D.J.Q.D.H.*.$.q.8.! 6 + ! ,.:.K.kXbXzX;XD.J.vXvXnXPXIXPXnXjXbXKX^.R.F.F.D S 3.J 5 U 4XIXZXP.5.XX%Xp.w.w.`.g...R e g ",
"a ;.<.C $.6.D.H.J.R.V.n.F M.C.Y 4 > a ] d.#XNXUXxXfXK.A.E.kXmXmXnXvXnXvXbXLX1XW.F.N.N.n.M.*.z ~ @XDXiX0.9.@XpXg.d. .t.y.' h k h ",
"o n =.=.I U D.I.W.J.F Z Z F s.Y l : i [ k.6XMXVXIXlXK.A.E.(.kXvXvXvX/.jXKXbXQ.R.F.N.n.n.P P G b =XVX,Xh.9.$XMX.X .'  .t.] M d r ",
": l x =.-.K *.P.J.I.J.B.Z S H H c 4 > v h.=XVXUXLXcXjXQ.A.L.E.Q.~.^.jXbXPXkXI.R.N.n.D D *.P b ! 6XNX=Xx.8.=XNX+X .' '  . .N 9 r ",
"c l l b =.K L 7.P.I.T.D.L L ,.c.m l i f ] XXNXZXUXUXKXcX^.Q.^.Q.jXjXnXPXcXL.L.E.B.D Z S *.&.~ &.U.:X#Xk.).=XCX=Xt.u.'  .y.] q q ",
"4 c m m =.=.%.2.I.T.>XP.G.c.q.0.G z l i f ! h.$XdXAXLXLXKXKXcXcXUXUXUXKXL.m.~.L.F Z 3 G &.&.&.&.c.c.x.f.g.6XCX8X`.u.' ' t.] - % ",
"+ I ;.C b $.=.5.P.;XlX1X;XP.&.>.4.K z t i W ! >.c.:XlXcXKXLXLXLXUXUXzXE.m.E.~.m.F S 3 b *.*.&.*.P.l.l.d.@.=XCXCX_.r.) ^ / N - % ",
"4 [ ;.n m [ =.%.3.I.lXT.*.5.q.<XP.P.%.v f f ! ! $.-.s.U.>XfXlXlXlX;XD.B.S./.E.Z S 5 l K *.*.P D.s.6.c.f.+.5XCX0X`.O.` ^ N N x % ",
"t l i f ! 1.>.K 2.G.gXI.D.D.M.I.I.;XP.0.v f t v Q $.-.2.4.s.7.7.*.*.N.Z.E.E.F F 3 5 l $.5.Y m.Z.7.2.c.k.t.6X0X9X'.O.X._ M N V 1 ",
"9 f f f Q | >.-.S D.J.R.J.B.n.N.H.L J %.>.>.! ! v > 4 z z J L z *.M.F.!.E.N.D Z A l b $.Y C.S.S.G.6.c.k.=X8X9X|.[.'.u._ W n a 1 ",
"9 f d f W ] >.I H P B.J.R.R.F.N.P P J K >.>.! f t l z z 5 z $.-.*.D.V.V.m.n.Z Z 5 z b 2.K.Q.E.S.P.z.b.@X6X0X9X|._._.O.) R d a , ",
"u f d s d E [ I J Z F V.S.R.R.F.gXT.2.z ~ 0.8.~ Q b l 4 z K $.-.F H.C.F Z Z Z A z b %.H.^.vX/.E.I.-X:X6X8X9X9X{.O.O.O.R h g < $ ",
"n k E d w r k =.U U F.W.F.R.!.!.cXzXP.L $.>.8.>.,.1.=.-.c.P.-.=.Y Y Y Z A A G G G %.%.H.vXnXvX/.-X:XuX6X6X5X3Xw.r.O.W R r p < $ ",
"x B ] { R w d n -.U I.I.M.F.2X2XY.1XI.P.1.~ v ~ >.q.l.P.-Xs.K m S A 3 2 4 4 z G J *.Y H.kXbXkX~.-X:X,X6X4X[.w.w.O._ W s d d e 0 ",
": a { d. .h e k n b U 7.*.D.I.;XQ.Q.U.P.-Xc.0.h.1.1.-.I U K z 4 5 O + i i v l m U 7.H.Y.gXkX^.K.#X$X%X5X3Xp.w.w.) R s f d s e e ",
"O + B ..y./ g h n n $.,.5.q.G.-XhXgXI.U.lXNX:X:Xb.l.:.I H H c z v i f W } ] { U 4.H.Q.gXxXfXtXrX:X,X@XoXw.w.` ` ^ R s W W R e e ",
"2 . : ]  .' R / s Q ~ &.&.&.8.q.B.Q.lXlXZXaX#Xx.1.s.P.z.I 5 c 6 ~ | | } '  .d.a.s.C.Q.kXfXfXdXdX,X$X X{.( w.( R R s R Q ! R s w ",
"0 r f ] d.9.>.0.| >.! Q | | | | &.q.G.;X2X2XQ.J.B.M.m.C.T F T T m.F F C.T F U s.K.yXDXdXsXDXSX4X&X&XOXu._ _ _ k h d 9 u n f * 9 ",
"q r y Q <...[ <.x..X0.| Q Q Q ! ,.5.q.G.1XlXgXfXgXgX(.fX^.Y.K.K.H.H.^.cXxXrXK.U.yXdXDXVXBXBX8Xv.'.'.i.O.^ / E g u d 8 8 u 9 & & ",
"* * * x [ =.[ >.0.x.0.| | ] Q ] $.&.%.5.G.I.1XQ.gXgXhXcXzXjXfXY.fXtXfXxXxXtXaXZXIXIXDXBXsX6X6XoX].`.O.O.^ ' / h k h & 8 r 0 & 9 ",
"# ; + i m m C 1.1.l.0...>.>.Q Q | $.>.-.5.G.D.H.D.J.I.T.T.T.Y.T.z.P.U.aXaXdXNXZXMXMXDXBX8X6XOXt.u.@.o./ / ' N h p p & & q e & g ",
"O + O O l c c =.l.l.1.<.9...[ Q Q Q ~ m b %.L Y P 3.D.D.D.7.G.P.f.b.:XuX,XNXMX6X%X6X6X=XOXOX'.O.@._ ^ j k N h p $ p & @ 0 = & 8 ",
"O 2 2 O 4 4 4 z :.1.,.[ >.=.[ [ E Q Q f l z z G J L *.%.L 2.q.P.%X%X@Xj..X=X=X+X6X=X*Xu.) o.].`. ./ j p p p a $ p a p $ = & @ & ",
"O 2 2 2 2 2 2 4 l I =.I ;.[ ~ | #.#...] v m b b 5 b J K &.,.q.q.@.} @.#. X X+XOXOXOX+X X@.o.@.O.{ B a a a a , , x V a # & & & & ",
"2 2 2 2 3 2 2 4 O K 1.1.<.=.n [ } } } | ] Q v i $.~ ~ ! | 9.+.! @.@.@.].].i.+. X#.@.@.i.@._ _ _ V x i : 1 4 : : x V a @ @ @ & & ",
"2 O U z.2 2 4 2 4 c m C =.[ [ [ E E E Q Q ] | | | #.#.i.d.i.i.i.@.@.@.o._ ' @.@.R / _ } / / E k C m c 4 2 4 6 4 4 : : ; # # # @ ",
"O 7 K.fXU 2 2 2 4 4 c m C m n n k k k E W ] } .. .#.y.@.o.X.` X.) R R R W R h w E E E n k k k k :.s.-.5 5 U c 2 4 O O : ; # # * ",
"2 6 7 U 2 O O z 2 4 l l x x x i k f f d k Q } ..#.@.t.e.X.` ( ) _ } } W g w w d k N k k u y a a 5 K 5 2 c z.s.5 2 4 + + + # # # ",
"O . O O 2 6 2 O : : : l l y i i k u u u d k / / _ ' ' ' X.` X.` +.i.y. .k s j ] k k a y y y q y : 5 4 O c 6.:.2 2 O + + + o o # ",
". O : : x O O : > 4 4 i i i t i u y r q r r r s h j R ^ ) _ ` ` } / j j / } N k k a p - q - - $ ; 4 4 : O 5 4 O O O + . o o X X ",
"o % % . o o ; l > > t > t t i y $ - - q q 9 9 9 r r s g R R j M g s h E E / h 0 h p p p p q = = o o > : : O + 1 . + .     X X X ",
"X X % o x > : # > > t t , t , > $ $ $ @ * * 9 9 u 9 9 d f d d s w h E R g w e g g 0 0 0 0 p = & y y y 1 % . . . . .         X X ",
"@ X -   # # t ; > > > > t t * 9 - - $ @ & & 9 9 9 9 * 9 t i 9 9 w s w w w e g g g 0 0 & = = 0 = # @ @ # % 1 % %               X "
};
